<svg width="100%" height="100%" viewBox="0 0 350 493" preserveAspectRatio="true" xmlns="http://www.w3.org/2000/svg">
<path class="frame" stroke="white" stroke-width="2" d="M0 7.91871C0 3.54532 3.54125 0 7.9096 0H342.09C346.459 0 350 3.54533 350 7.91871V484.229C350 488.603 346.459 492.148 342.09 492.148H7.9096C3.54125 492.148 0 488.603 0 484.229V7.91871ZM279.407 17.8171H23.7288C19.3605 17.8171 15.8192 21.3624 15.8192 25.7358V469.976C15.8192 474.349 19.3605 477.894 23.7288 477.894H325.876C330.244 477.894 333.785 474.349 333.785 469.976V70.8725C333.785 61.0533 328.051 58.2025 320.734 58.2025H300.169C295.801 58.2025 292.26 54.6572 292.26 50.2838V27.5281C291.193 20.0821 285.928 17.8171 279.407 17.8171Z" fill="white"/>
<path class="crown" d="M333.95 29.0613C333.67 29.0614 333.403 29.1696 333.205 29.362C333.008 29.5545 332.897 29.8155 332.897 30.0876C332.897 30.2945 332.74 30.4867 332.848 30.648L328.483 31.8821V28.8147C328.982 28.8051 330.07 28.2046 330.07 27.4649C330.07 26.7186 329.559 26.1139 328.793 26.1139C328.027 26.1139 327.464 26.7186 327.464 27.4649C327.464 27.77 327.597 28.05 327.772 28.2773L324.569 30.3827L321.187 25.2555C321.553 25.1026 321.853 24.8324 322.039 24.4899C322.225 24.1474 322.285 23.7532 322.209 23.3729C322.133 22.9925 321.926 22.6489 321.622 22.3992C321.318 22.1496 320.935 22.0088 320.538 22.0004C320.14 21.992 319.752 22.1164 319.437 22.353C319.122 22.5896 318.899 22.9242 318.807 23.3009C318.714 23.6777 318.756 24.0741 318.927 24.4241C319.097 24.7742 319.386 25.0568 319.744 25.225L316.289 30.3939L313.229 28.2451C313.355 28.0718 313.437 27.872 313.469 27.6619C313.5 27.4518 313.481 27.2373 313.412 27.0359C313.342 26.8346 313.225 26.652 313.07 26.5029C312.915 26.3539 312.726 26.2427 312.518 26.1783C312.31 26.1139 312.09 26.0982 311.875 26.1324C311.659 26.1665 311.456 26.2497 311.28 26.375C311.104 26.5004 310.961 26.6644 310.862 26.8538C310.763 27.0432 310.712 27.2526 310.712 27.4649C310.712 28.2109 311.286 28.8156 312.052 28.8156H312.023V31.7997L307.772 30.7968C307.954 30.6125 308.089 30.363 308.089 30.0864C308.089 29.889 308.031 29.6958 307.921 29.5301C307.811 29.3644 307.654 29.2335 307.469 29.1532C307.284 29.073 307.079 29.0469 306.879 29.0782C306.679 29.1094 306.493 29.1967 306.343 29.3293C306.193 29.4619 306.085 29.6341 306.034 29.825C305.983 30.0159 305.99 30.2172 306.054 30.4045C306.118 30.5917 306.236 30.7567 306.395 30.8795C306.553 31.0023 306.745 31.0775 306.947 31.096L308.628 39H332.32L333.821 31.3367C333.864 31.3413 333.907 31.2285 333.947 31.2285C334.529 31.2285 335 30.7111 335 30.1445C335 29.5778 334.529 29.0613 333.95 29.0613Z" fill="#A8A4AE"/>
</svg>
