<svg class="frame-back" width="100%" height="100%" viewBox="0 0 885 1239" fill="none" xmlns="http://www.w3.org/2000/svg">
<path class="frame-back__path" fill-rule="evenodd" clip-rule="evenodd" d="M30 0C13.4315 0 0 13.4315 0 30V1209C0 1225.57 13.4314 1239 30 1239H855C871.569 1239 885 1225.57 885 1209V30C885 13.4315 871.569 0 855 0H30ZM69 54C61.268 54 55 60.268 55 68V1171C55 1178.73 61.268 1185 69 1185H816C823.732 1185 830 1178.73 830 1171V68C830 60.268 823.732 54 816 54H69Z" fill="#ffffff"/>
</svg>
