<svg xmlns="http://www.w3.org/2000/svg" fill="none" viewBox="0 0 2438 2446"><g filter="url(#a)"><path fill="url(#b)" fill-rule="evenodd" d="M1219 2438c673.24 0 1219-545.76 1219-1219C2438 545.765 1892.24 0 1219 0 545.765 0 0 545.765 0 1219c0 673.24 545.765 1219 1219 1219Zm0-315c499.27 0 904-404.73 904-904 0-499.265-404.73-904-904-904-499.265 0-904 404.735-904 904 0 499.27 404.735 904 904 904Z" clip-rule="evenodd"/></g><g filter="url(#c)"><mask id="u" width="1294" height="1291" x="572" y="484" fill="#000" maskUnits="userSpaceOnUse"><path fill="#fff" d="M572 484h1294v1291H572z"/><path d="m1315.53 646.98 60-17.364c.28-1.67.55-3.252.8-4.793l.01-.02c.28-1.683.55-3.317.84-4.962 1.39-8.005 7.22-13.336 14.65-13.372 6.85-.035 13.39 5.649 14.72 12.788 1.41 7.544-2.82 15.928-10.14 17.632-5.19 1.202-6.54 3.938-7.39 8.456-4.58 24.531-9.28 49.045-13.98 73.56l-.03.187c-1.48 7.684-2.95 15.368-4.42 23.052-.31 1.646-.67 3.285-1.05 5.016l-.49 2.203h-332.86l-23.45-112.673c-12.05-5.143-16.202-13.004-11.91-21.854.86-1.76 2.06-3.332 3.53-4.625.55-.478 1.13-.914 1.74-1.307a14.687 14.687 0 0 1 6.11-2.24 14.74 14.74 0 0 1 2.98-.084c1.96.142 3.86.67 5.61 1.556 8.22 4.211 9.97 12.71 4.3 23.501l57.73 13.996c1.28-4.692 1.5-35.367.41-41.966-14.35-4.433-20.66-14.268-16.75-26.13a19.503 19.503 0 0 1 9.48-11.198 19.53 19.53 0 0 1 14.61-1.433c12.2 3.682 16.22 14.237 11.19 30.394l42.13 30.305 48.06-73.691c-14.93-12.223-17.52-27.79-6.88-39.157a24.59 24.59 0 0 1 8.02-5.745 24.545 24.545 0 0 1 19.34-.269c1.06.436 2.09.946 3.07 1.524a24.406 24.406 0 0 1 5.11 3.995c5.93 6.057 7.87 13.426 6.54 21.595-1.33 8.168-6.52 13.942-14.11 18.189l47.22 73.383 44.43-29.937c-.36-.779-.71-1.485-1.03-2.147l-.01-.009-.03-.076c-.53-1.079-1-2.048-1.41-3.042a19.174 19.174 0 0 1-.96-11.23 19.175 19.175 0 0 1 5.53-9.824c5.68-5.256 12.33-6.519 19.54-3.807 6.82 2.575 11.33 9.781 11.29 17.684-.03 4.692-2.21 8.457-5.5 11.639-4.58 4.427-10.07 7.177-16.55 8.632l-.04 43.668Z"/><path fill-rule="evenodd" d="M1145.17 589.092c5.08-7.784 9.97-15.296 14.86-22.82.68-1.037 1.47-2.059 2.26-3.083l.02-.028v-.002c1.89-2.447 3.79-4.897 4.15-7.557.31-2.282-.98-4.773-2.28-7.279-.62-1.186-1.24-2.376-1.69-3.548a43.3 43.3 0 0 1 15.95-51.128c16.48-11.339 38.75-9.942 53.49 3.351 15.18 13.708 18.95 35.422 9.2 53.202-.67 1.21-1.37 2.391-2.16 3.695l-.01.024-1.08 1.81 27.87 43.307 15.95-10.785c.25-1.863.42-3.658.59-5.398.34-3.608.67-6.972 1.55-10.175 4.87-17.828 22.55-29.646 40.26-27.326 19.08 2.503 32.85 17.648 33.34 36.691.36 14.232-5.43 25.174-17.53 32.758-2.95 1.835-2.96 1.906-3.23 6.091l-.02.25c1.37-.339 2.71-.689 4.04-1.036 2.94-.767 5.8-1.513 8.69-2.069 4.68-.895 7.39-2.892 9.04-7.922 4.32-13.052 17.4-21.929 31.32-22.459 14.71-.56 26.12 6.176 32.13 18.935 6.37 13.564 3.35 35.933-12.48 44.511-1.55.839-2.41 1.904-2.94 3.155-.34.794-.54 1.662-.71 2.596l-11.08 61.491c-2.09 11.592-4.2 23.185-6.3 34.733l-.03.171c-1.24 6.843-2.48 13.669-3.71 20.47l-.28.278c-.13.131-.22.227-.33.323-.13.144-.29.259-.47.339-.57.183-1.16.298-1.75.342h-358.96c-.98-.073-1.96-.2-2.92-.38-1.21-6.014-2.41-12.029-3.54-18.045l-5.48-28.912c-4.62-24.405-9.22-48.81-13.796-73.216-.53-2.846-2.138-4.493-4.12-6.297-10.596-9.662-14.144-21.746-10.729-35.489 3.717-14.93 17.524-25.059 32.945-25.018 15.42.042 29.48 10.13 33.23 24.765 1.13 4.427 3.15 5.821 7.12 6.423 3.14.475 6.24 1.19 9.41 1.92 1.37.316 2.75.635 4.15.938.84-2.443 1.06-4.259-1.16-5.564l-.84-.478-.18-.106c-.36-.204-.72-.409-1.07-.619-21.36-12.867-21.01-39.698-10.44-54.286 9.11-12.566 21.62-17.642 36.87-14.623 15.87 3.147 25.91 13.024 30.02 28.555.77 2.861 1.02 5.842 1.29 8.97v.006c.13 1.474.26 2.98.45 4.521l14.82 10.689c2.14-3.279 4.23-6.493 6.3-9.662Zm-117.3 171.765h348.24c.16-.666.33-1.309.5-1.937.36-1.397.71-2.721.96-4.076l3.57-19.314c5.3-28.61 10.6-57.218 15.75-85.854.74-4.084 2-6.615 6.13-8.469a22.19 22.19 0 0 0 10.54-9.892 22.094 22.094 0 0 0 2.22-14.276c-2.17-11.753-11.8-19.73-23.82-19.705-12.01.025-22.28 8.62-23.73 20.493-.49 4.078-2.01 5.852-5.92 6.894-6.4 1.71-12.75 3.64-19.1 5.57l-.16.049-.01.002c-3.19.968-6.37 1.937-9.57 2.878a34.674 34.674 0 0 1-4.08.685v-22.856c16.95-8.096 23.3-21.011 18.26-36.487-4.37-13.433-18.07-21.835-31.5-19.392a28.573 28.573 0 0 0-18.12 10.887c-6.09 7.855-6.94 16.763-4.9 26.255l-30.12 20.221-37.1-57.562c14.55-19.074 14.36-36.691-.18-50.418-12.72-12.03-31.27-12.266-44.86-.602-14.67 12.56-15.33 30.484-1.54 50.381l-37.95 58.147-28.48-20.486c.1-.631.2-1.226.3-1.796.19-1.132.37-2.172.5-3.216 2.46-21.653-19.28-38.224-39.36-30.02-17.47 7.146-23.27 29.546-10.9 43.405 2.08 2.328 4.81 4.071 7.65 5.883v.001l.03.019v.003c1.34.853 2.7 1.721 4.03 2.672v22.795c-1.5-.064-3-.211-4.49-.432-3.09-.651-6.17-1.311-9.25-1.977-4.75-1.03-9.5-2.074-14.25-3.137-5.81-1.31-5.82-1.365-6.82-7.248l-.02-.102c-1.7-9.979-7.42-16.702-16.87-20.12-11.59-4.21-24.581 1.09-30.195 12.067-5.614 10.977-2.409 22.622 8.585 29.684a7.708 7.708 0 0 1 2.58 2.347c.37.549.67 1.142.9 1.766.17.476.29.971.36 1.474 4.19 22.136 8.48 44.251 12.77 66.37l2.8 14.443c1.15 5.92 2.3 11.833 3.47 17.812v.002l3.15 16.169Z" clip-rule="evenodd"/><path d="M1523.28 864.389c-71.08 0-202.95 54.907-202.95 198.061 0 161.78 149.52 198.55 202.95 198.55 53.43 0 92.16-13.24 130.4-27.45 30.39-11.3 36.6 6.04 36.28 16.66h59.31v-109.32c0-34.51 25.82-40.2 38.73-38.73v-55.4h-216.68v56.87c38.13 2.76 37.95 16.71 37.77 29.75-.01.87-.02 1.74-.02 2.61 0 29.8-31.87 38.88-50.98 37.74-41.18-2.45-57.36-41.18-62.86-60.79-3.32-24.51-7.25-108.34 5.5-130.402 16.43-28.434 37.75-40.199 57.36-40.199 38.72 0 68.14 28.433 71.08 48.533l3.43 29.908h116.67V866.84h-60.79l-.5.901c-.15.272-.41.733-.89 1.589-10.36 18.528-15.99 28.617-32.43 22.512-23.8-24.512-99.19-29.414-131.38-27.453Z"/><path fill-rule="evenodd" d="M647.648 943.319c28.924 0 38.237 27.944 38.237 39.71v164.231c0 5.88-8.333 44.12-38.237 41.67v63.24h284.329c48.696-1.14 146.083-23.33 146.083-102.95 0-57.96-31.86-74.42-67.56-92.88h-.01c-5.36-2.77-10.812-5.59-16.254-8.6 1.158-.5 2.361-1.01 3.604-1.54h.004l.015-.01c25.571-10.88 67.461-28.71 67.461-86.202 0-67.164-90.693-92.167-126.97-92.167l-290.702 3.432s-1.458 45.808 0 72.066ZM827.07 1004.6v-51.966c0-7.844 7.843-8.334 10.785-8.334h54.904c3.922 0 25.492 5.883 25.492 33.336 0 19.12-13.726 37.264-25.492 37.264h-55.395c-9.804 0-10.294-5.89-10.294-10.3Zm-.491 158.94v-61.35c0-9.26 4.412-9.84 11.07-9.84h55.11c10.785 0 30.884 19.1 30.884 41.68 0 22.57-18.138 41.67-30.884 41.67h-55.11c-10.542 0-11.07-6.95-11.07-12.16Z" clip-rule="evenodd"/><path d="M1096.29 870.762v68.145c10.79.98 32.36 10.393 32.36 40.2v183.843c0 11.93-6.47 35.79-32.36 35.79v56.38h209.82v-60.3c-20.59 0-45.59-13.44-45.59-37.75V979.107c1.14-13.4 11.86-40.2 45.59-40.2v-68.145h-209.82Z"/><path fill-rule="evenodd" d="m576.598 1117.52 36.287-1.24v-97.94h-37.118l-1.059-71.416c-.823-15.69-.781-35.336-.601-49.897.072-5.823.73-29.423 1.1-42.726.128-4.568.221-7.922.245-8.925l1.145-47.273 362.82-4.283h.289c22.765 0 53.436 5.221 83.584 16.641v-13.7h358.83v33.934c47.15-27.164 98.63-39.844 140.35-40.295 21.38-1.108 52.53-.031 82.66 4.683 11.23 1.758 23.39 4.182 35.5 7.587l5.39-9.831h179.25v179.91H1864v198.401l-38.73 7.04v147.02H1614.6l.01-.04c-26.04 6.36-55.57 10.83-89.84 10.83-34.44 0-89.93-9.6-142.65-38.83v32.95h-358.83v-18.39c-32.574 10.85-64.763 14.88-88.056 15.42l-.575.02-360.61.01 2.549-209.66Zm85.308 29.34V983.534c0-13.237-9.806-14.217-12.745-14.217h-25.095l-.357-24.077c-.781-14.061-.767-32.823-.584-47.606.067-5.399.67-27.066 1.045-40.533v-.001c.146-5.217.257-9.203.289-10.537l315.247-3.721c20.907 0 53.965 6.395 83.584 20.985 1.92.95 3.84 1.935 5.73 2.955 15.51 8.344 31.34 19.996 43.29 35.459v-56.458h260.79v94.054c13.64-19.762 30.2-36.351 48.18-49.931l.84-.633c45.95-34.391 101.27-49.668 141.87-49.862 17.98-1.023 46.29-.162 73.56 4.104 13.88 2.172 28.2 5.333 41.09 9.91 1.46.521 3.23 1.257 5.16 2.059v.003l.01.002c8.36 3.483 19.71 8.211 22.63 2.059l8.61-15.688h101.2v179.91h38.73v108.47s-5.4.98-22.55.98c-17.16 0-16.18 17.03-16.18 17.03v127.94h-111.09l.58-18.86c-.19.06-.38.13-.58.2-.36.12-.72.26-1.11.4-15.19 5.65-30.9 11.32-47.87 16.13-26.46 7.5-55.98 12.92-91.41 12.92-30.88 0-86.74-10.24-135.66-42.9a213.2 213.2 0 0 1-6.99-4.85c-18.19-13.17-35.11-29.57-49.02-49.7v91.57h-260.79v-53.27c-10.71 10.52-23.15 18.92-35.87 25.46-4.31 2.21-8.71 4.25-13.15 6.12-31.528 13.26-65.625 18.18-89.208 18.74H623.67l1.377-113.24 26.196-.89c6.801-.57 10.627-8.9 10.663-17.16Zm1159.034 16.19c-.7-3.87-1.58-8.73-2.69-14.8l2.69 14.8Z" clip-rule="evenodd"/><path d="M815.21 1627c-1.562-8.21-3.535-13.04-5.349-15.68-.963-1.39-1.647-1.82-2.05-2.03-.459-.23-1.791-.79-4.811-.79h-12.5v18.45c.75.03 1.58.05 2.5.05h22.21ZM795 1508h30.839c.653-2.23 1.161-5.13 1.161-8.5 0-3.8-.447-6.57-.958-8.5H795v17ZM824.579 1487.42l.021.03-.011-.02h-.005l-.005-.01Z"/><path fill-rule="evenodd" d="M972 1692.12c9.353-8.78 13.507-19.86 15.309-31.51.643-4.16.986-8.39 1.159-12.61.012-.27.022-.55.032-.82.128-3.55.141-7.09.117-10.57-.012-1.76-.034-3.5-.055-5.23v-.01c-.031-2.5-.062-4.97-.062-7.37H963c0 18.38-3.555 18.99-6.057 19.42-.152.03-.3.05-.443.08-7.664 0-9.145-10.09-9.431-19.5-.021-.68-.036-1.37-.046-2.04-.023-1.54-.023-3.05-.023-4.46 0-6.61-.738-12.39-2.046-17.5-3.553-13.87-11.309-22.79-19.928-30.02-3.512-2.95-7.167-5.61-10.738-8.22-3.968-2.89-7.835-5.71-11.288-8.76 9.715-3.64 17.95-7.31 24.912-11.01 36.038-19.11 38.021-38.88 35.088-58.99-11.5-55.5-67.5-69-90-69H636v56s24.365 3.05 24.365 25.47V1624c0 8.97-4.873 31-24.365 31v48h157v-52c-15.505 0-26.5-3.44-26.5-21.72v-30.78c0-15.2 7-15.67 10.5-14h26c24.5 0 34 18.72 37.5 49.5 2.331 20.5 4.755 39 17.5 54 17.6 20.71 58 22.79 66 22 23.455-2.33 38.442-8.9 48-17.88Zm-201-208.45v38.85c0 4.06 3.461 9.48 9 9.48h54.773c7.727 0 16.227-14.5 16.227-32.5 0-22.5-10.561-32.5-16.227-32.5h-50.957c-3.498 0-12.816 0-12.816 16.67Z" clip-rule="evenodd"/><path d="M947.748 1558.3c2.81 2.84 5.566 5.99 8.113 9.48 6.57 8.99 11.354 19.57 13.637 32.22h26.867v-104.53c0-1.44-.136-2.36-.255-2.9l-.062-.02c-.619-.19-1.395-.34-2.218-.41l-5.941-.54c.412 12.2-1.659 26.36-11.222 40.45-6.709 9.87-16.301 18.5-28.919 26.25Z"/><path d="M1012.14 1654.59c-3.71 3.56-8.92 6.02-16.14 6.02V1703h157v-45.34c-15.5 0-26.5-10.1-26.5-28.38v-133.81c.03-.34.06-.68.08-1.03.03-.35.05-.71.08-1.08.71-9.88 1.63-22.75 26.34-28.12V1414H996v54.24c8.12.74 24.36 4.81 24.36 27.23v138.23c0 5.65-1.93 14.85-8.22 20.89ZM1462.74 1471.7c8.44 1.16 22.47 6.05 22.47 26.8v134.68c0 8.91-4.84 21.79-24.21 21.79V1702h157v-48.03c-15.41 0-27.5-8.31-27.5-26.47V1584h.71c.32-3.24 2.04-9.72 11.58-9.72h57.72c3.03 0 7.14 1.23 8.7 5.64v53.26c0 8.91-4.84 21.79-24.21 21.79V1702h157v-48.03c-15.41 0-27.5-8.31-27.5-26.47V1505l.05-.57.01-.12c.87-10.35 2.76-32.81 27.44-32.81V1415h-157v56.5c8.07.73 24.21 4.74 24.21 27v24.98c-.86 4.95-4.43 8.55-11.14 8.55h-52.5l-.29-.02c-4.44-.35-14.07-1.11-14.07-11.01h-.71v-16l.06-.69c.15-1.79.33-3.94.65-6.27.03-.18.05-.35.08-.53.02-.17.05-.34.08-.51 1.71-11.06 6.84-25.5 26.63-25.5V1415h-157v56.5c.55.05 1.13.11 1.74.2ZM1438.74 1414.25h-39.64c-.31.67-.6 1.32-.9 1.95l-.01.03c-6.75 14.7-10.43 22.71-21.15 17.86-15.52-19.45-64.69-19.34-85.68-17.78-46.36 0-128.36 46.69-128.36 153.15 0 106.46 102.65 141.04 137.5 141.04 34.85 0 138.24-6.5 138.24-100v-39h-76.24c0 72.5-27.34 73.4-39.81 72.5-24.5-1.77-27.39-15.24-30.43-29.4-.29-1.36-.59-2.73-.9-4.1-1.56-14.01-.88-48.53-.37-73.99.2-9.89.37-18.42.37-23.84 0-22.67 17.64-38.17 36.14-38.17 19.81 0 31 22.22 32.92 38.17l2.23 25.73h76.09v-124.15Z"/><path d="M1336.55 1515.21c-.59-4.35-2.53-9.71-5.27-13.45-1.3-1.78-2.37-2.64-2.95-2.99-.43-.26-.59-.27-.83-.27-5.29 0-12.14 4.8-12.14 14.17 0 5.66-.17 14.36-.37 24.01v.31c-.51 25.69-1.08 56.79.1 69.64.22.99.43 1.95.61 2.83l.03.1c.81 3.79 1.31 6 1.92 7.85.25.75.45 1.23.58 1.51.68.28 2.5.88 6.19 1.14 3.99.29 4.39-.15 5.04-.87l.01-.02.09-.09c2.2-2.4 8.94-13.11 8.94-47.58v-24h.85l-2.8-32.29ZM1799.8 1495.72c-.06.01-.08.03-.08.03s.01-.01.02-.01c.02-.01.03-.01.06-.02Z"/><path fill-rule="evenodd" d="M574 1352h299c16.248 0 38.415 3.42 61 12.69V1352h281v22.15c25.02-12.76 50.88-19.36 73.84-19.82 13.22-.87 34.18-1.27 55.47 1.52 3.94.52 8.15 1.17 12.51 2.02l2.6-5.62h141.32v.75H1864v180.5h-27.5v58.47h27.5V1764h-465v-8.12c-39.77 15.31-80.31 16.62-98.5 16.62-23.08 0-54.58-7.2-85.5-22.58V1765H964.868c-10.957 3.3-22.606 5.49-34.742 6.7-11.932 1.18-30.833 0-49.212-4.16-6.96-1.58-16.074-4.06-25.914-8.13v5.59H574v-172h24.365v-65.23L574 1524.71V1352Zm38 38h261c14.915 0 38.69 4.22 60.932 16.79 14.04 7.94 27.799 19.43 38.068 35.39V1390h205v63.35c32.33-40.9 78.88-60.69 113.43-61.04 11.56-.81 30.38-1.22 48.94 1.22 9.51 1.24 19.74 3.33 29.2 6.92 2.82 1.07 5.75 2.34 8.68 3.86l6.49-14.06h79v.75H1826v104.5h-24c-.42 0-.78.02-1.08.04-.2.01-.38.03-.52.06-.33.71-.73 1.91-1.09 3.76-.4 2.07-.6 4.15-.81 6.65v121.49c0 .98.08 1.66.17 2.08.57.18 1.62.39 3.33.39h24V1726h-389v-40.71c-12.76 14.98-28.71 25.22-44.63 32.23-34.93 15.4-73.64 16.98-91.87 16.98-22.85 0-62.13-10.47-95.98-35.23-9.71-7.09-19.06-15.44-27.52-25.13V1727H972v-5.7c-12.323 6.56-27.502 10.78-45.629 12.58-7.07.7-21.803.05-37.069-3.41-14.875-3.36-35.677-10.55-49.591-26.93-17.233-20.28-20.525-44.68-22.711-63.78V1727H612v-96h22.62c.467-.92.936-2.21 1.284-3.73.39-1.7.461-2.96.461-3.27v-128.53a8.2 8.2 0 0 0-.004-.24 4.11 4.11 0 0 0-.301-.19c-.773-.45-1.766-.83-2.695-1.09-.34-.1-.6-.16-.742-.19L612 1491.18V1390Z" clip-rule="evenodd"/></mask><path fill="url(#d)" d="m1315.53 646.98 60-17.364c.28-1.67.55-3.252.8-4.793l.01-.02c.28-1.683.55-3.317.84-4.962 1.39-8.005 7.22-13.336 14.65-13.372 6.85-.035 13.39 5.649 14.72 12.788 1.41 7.544-2.82 15.928-10.14 17.632-5.19 1.202-6.54 3.938-7.39 8.456-4.58 24.531-9.28 49.045-13.98 73.56l-.03.187c-1.48 7.684-2.95 15.368-4.42 23.052-.31 1.646-.67 3.285-1.05 5.016l-.49 2.203h-332.86l-23.45-112.673c-12.05-5.143-16.202-13.004-11.91-21.854.86-1.76 2.06-3.332 3.53-4.625.55-.478 1.13-.914 1.74-1.307a14.687 14.687 0 0 1 6.11-2.24 14.74 14.74 0 0 1 2.98-.084c1.96.142 3.86.67 5.61 1.556 8.22 4.211 9.97 12.71 4.3 23.501l57.73 13.996c1.28-4.692 1.5-35.367.41-41.966-14.35-4.433-20.66-14.268-16.75-26.13a19.503 19.503 0 0 1 9.48-11.198 19.53 19.53 0 0 1 14.61-1.433c12.2 3.682 16.22 14.237 11.19 30.394l42.13 30.305 48.06-73.691c-14.93-12.223-17.52-27.79-6.88-39.157a24.59 24.59 0 0 1 8.02-5.745 24.545 24.545 0 0 1 19.34-.269c1.06.436 2.09.946 3.07 1.524a24.406 24.406 0 0 1 5.11 3.995c5.93 6.057 7.87 13.426 6.54 21.595-1.33 8.168-6.52 13.942-14.11 18.189l47.22 73.383 44.43-29.937c-.36-.779-.71-1.485-1.03-2.147l-.01-.009-.03-.076c-.53-1.079-1-2.048-1.41-3.042a19.174 19.174 0 0 1-.96-11.23 19.175 19.175 0 0 1 5.53-9.824c5.68-5.256 12.33-6.519 19.54-3.807 6.82 2.575 11.33 9.781 11.29 17.684-.03 4.692-2.21 8.457-5.5 11.639-4.58 4.427-10.07 7.177-16.55 8.632l-.04 43.668Z"/><path fill="url(#e)" fill-rule="evenodd" d="M1145.17 589.092c5.08-7.784 9.97-15.296 14.86-22.82.68-1.037 1.47-2.059 2.26-3.083l.02-.028v-.002c1.89-2.447 3.79-4.897 4.15-7.557.31-2.282-.98-4.773-2.28-7.279-.62-1.186-1.24-2.376-1.69-3.548a43.3 43.3 0 0 1 15.95-51.128c16.48-11.339 38.75-9.942 53.49 3.351 15.18 13.708 18.95 35.422 9.2 53.202-.67 1.21-1.37 2.391-2.16 3.695l-.01.024-1.08 1.81 27.87 43.307 15.95-10.785c.25-1.863.42-3.658.59-5.398.34-3.608.67-6.972 1.55-10.175 4.87-17.828 22.55-29.646 40.26-27.326 19.08 2.503 32.85 17.648 33.34 36.691.36 14.232-5.43 25.174-17.53 32.758-2.95 1.835-2.96 1.906-3.23 6.091l-.02.25c1.37-.339 2.71-.689 4.04-1.036 2.94-.767 5.8-1.513 8.69-2.069 4.68-.895 7.39-2.892 9.04-7.922 4.32-13.052 17.4-21.929 31.32-22.459 14.71-.56 26.12 6.176 32.13 18.935 6.37 13.564 3.35 35.933-12.48 44.511-1.55.839-2.41 1.904-2.94 3.155-.34.794-.54 1.662-.71 2.596l-11.08 61.491c-2.09 11.592-4.2 23.185-6.3 34.733l-.03.171c-1.24 6.843-2.48 13.669-3.71 20.47l-.28.278c-.13.131-.22.227-.33.323-.13.144-.29.259-.47.339-.57.183-1.16.298-1.75.342h-358.96c-.98-.073-1.96-.2-2.92-.38-1.21-6.014-2.41-12.029-3.54-18.045l-5.48-28.912c-4.62-24.405-9.22-48.81-13.796-73.216-.53-2.846-2.138-4.493-4.12-6.297-10.596-9.662-14.144-21.746-10.729-35.489 3.717-14.93 17.524-25.059 32.945-25.018 15.42.042 29.48 10.13 33.23 24.765 1.13 4.427 3.15 5.821 7.12 6.423 3.14.475 6.24 1.19 9.41 1.92 1.37.316 2.75.635 4.15.938.84-2.443 1.06-4.259-1.16-5.564l-.84-.478-.18-.106c-.36-.204-.72-.409-1.07-.619-21.36-12.867-21.01-39.698-10.44-54.286 9.11-12.566 21.62-17.642 36.87-14.623 15.87 3.147 25.91 13.024 30.02 28.555.77 2.861 1.02 5.842 1.29 8.97v.006c.13 1.474.26 2.98.45 4.521l14.82 10.689c2.14-3.279 4.23-6.493 6.3-9.662Zm-117.3 171.765h348.24c.16-.666.33-1.309.5-1.937.36-1.397.71-2.721.96-4.076l3.57-19.314c5.3-28.61 10.6-57.218 15.75-85.854.74-4.084 2-6.615 6.13-8.469a22.19 22.19 0 0 0 10.54-9.892 22.094 22.094 0 0 0 2.22-14.276c-2.17-11.753-11.8-19.73-23.82-19.705-12.01.025-22.28 8.62-23.73 20.493-.49 4.078-2.01 5.852-5.92 6.894-6.4 1.71-12.75 3.64-19.1 5.57l-.16.049-.01.002c-3.19.968-6.37 1.937-9.57 2.878a34.674 34.674 0 0 1-4.08.685v-22.856c16.95-8.096 23.3-21.011 18.26-36.487-4.37-13.433-18.07-21.835-31.5-19.392a28.573 28.573 0 0 0-18.12 10.887c-6.09 7.855-6.94 16.763-4.9 26.255l-30.12 20.221-37.1-57.562c14.55-19.074 14.36-36.691-.18-50.418-12.72-12.03-31.27-12.266-44.86-.602-14.67 12.56-15.33 30.484-1.54 50.381l-37.95 58.147-28.48-20.486c.1-.631.2-1.226.3-1.796.19-1.132.37-2.172.5-3.216 2.46-21.653-19.28-38.224-39.36-30.02-17.47 7.146-23.27 29.546-10.9 43.405 2.08 2.328 4.81 4.071 7.65 5.883v.001l.03.019v.003c1.34.853 2.7 1.721 4.03 2.672v22.795c-1.5-.064-3-.211-4.49-.432-3.09-.651-6.17-1.311-9.25-1.977-4.75-1.03-9.5-2.074-14.25-3.137-5.81-1.31-5.82-1.365-6.82-7.248l-.02-.102c-1.7-9.979-7.42-16.702-16.87-20.12-11.59-4.21-24.581 1.09-30.195 12.067-5.614 10.977-2.409 22.622 8.585 29.684a7.708 7.708 0 0 1 2.58 2.347c.37.549.67 1.142.9 1.766.17.476.29.971.36 1.474 4.19 22.136 8.48 44.251 12.77 66.37l2.8 14.443c1.15 5.92 2.3 11.833 3.47 17.812v.002l3.15 16.169Z" clip-rule="evenodd"/><path fill="url(#f)" d="M1523.28 864.389c-71.08 0-202.95 54.907-202.95 198.061 0 161.78 149.52 198.55 202.95 198.55 53.43 0 92.16-13.24 130.4-27.45 30.39-11.3 36.6 6.04 36.28 16.66h59.31v-109.32c0-34.51 25.82-40.2 38.73-38.73v-55.4h-216.68v56.87c38.13 2.76 37.95 16.71 37.77 29.75-.01.87-.02 1.74-.02 2.61 0 29.8-31.87 38.88-50.98 37.74-41.18-2.45-57.36-41.18-62.86-60.79-3.32-24.51-7.25-108.34 5.5-130.402 16.43-28.434 37.75-40.199 57.36-40.199 38.72 0 68.14 28.433 71.08 48.533l3.43 29.908h116.67V866.84h-60.79l-.5.901c-.15.272-.41.733-.89 1.589-10.36 18.528-15.99 28.617-32.43 22.512-23.8-24.512-99.19-29.414-131.38-27.453Z"/><path fill="url(#g)" fill-rule="evenodd" d="M647.648 943.319c28.924 0 38.237 27.944 38.237 39.71v164.231c0 5.88-8.333 44.12-38.237 41.67v63.24h284.329c48.696-1.14 146.083-23.33 146.083-102.95 0-57.96-31.86-74.42-67.56-92.88h-.01c-5.36-2.77-10.812-5.59-16.254-8.6 1.158-.5 2.361-1.01 3.604-1.54h.004l.015-.01c25.571-10.88 67.461-28.71 67.461-86.202 0-67.164-90.693-92.167-126.97-92.167l-290.702 3.432s-1.458 45.808 0 72.066ZM827.07 1004.6v-51.966c0-7.844 7.843-8.334 10.785-8.334h54.904c3.922 0 25.492 5.883 25.492 33.336 0 19.12-13.726 37.264-25.492 37.264h-55.395c-9.804 0-10.294-5.89-10.294-10.3Zm-.491 158.94v-61.35c0-9.26 4.412-9.84 11.07-9.84h55.11c10.785 0 30.884 19.1 30.884 41.68 0 22.57-18.138 41.67-30.884 41.67h-55.11c-10.542 0-11.07-6.95-11.07-12.16Z" clip-rule="evenodd"/><path fill="url(#h)" d="M1096.29 870.762v68.145c10.79.98 32.36 10.393 32.36 40.2v183.843c0 11.93-6.47 35.79-32.36 35.79v56.38h209.82v-60.3c-20.59 0-45.59-13.44-45.59-37.75V979.107c1.14-13.4 11.86-40.2 45.59-40.2v-68.145h-209.82Z"/><path fill="url(#i)" fill-rule="evenodd" d="m576.598 1117.52 36.287-1.24v-97.94h-37.118l-1.059-71.416c-.823-15.69-.781-35.336-.601-49.897.072-5.823.73-29.423 1.1-42.726.128-4.568.221-7.922.245-8.925l1.145-47.273 362.82-4.283h.289c22.765 0 53.436 5.221 83.584 16.641v-13.7h358.83v33.934c47.15-27.164 98.63-39.844 140.35-40.295 21.38-1.108 52.53-.031 82.66 4.683 11.23 1.758 23.39 4.182 35.5 7.587l5.39-9.831h179.25v179.91H1864v198.401l-38.73 7.04v147.02H1614.6l.01-.04c-26.04 6.36-55.57 10.83-89.84 10.83-34.44 0-89.93-9.6-142.65-38.83v32.95h-358.83v-18.39c-32.574 10.85-64.763 14.88-88.056 15.42l-.575.02-360.61.01 2.549-209.66Zm85.308 29.34V983.534c0-13.237-9.806-14.217-12.745-14.217h-25.095l-.357-24.077c-.781-14.061-.767-32.823-.584-47.606.067-5.399.67-27.066 1.045-40.533v-.001c.146-5.217.257-9.203.289-10.537l315.247-3.721c20.907 0 53.965 6.395 83.584 20.985 1.92.95 3.84 1.935 5.73 2.955 15.51 8.344 31.34 19.996 43.29 35.459v-56.458h260.79v94.054c13.64-19.762 30.2-36.351 48.18-49.931l.84-.633c45.95-34.391 101.27-49.668 141.87-49.862 17.98-1.023 46.29-.162 73.56 4.104 13.88 2.172 28.2 5.333 41.09 9.91 1.46.521 3.23 1.257 5.16 2.059v.003l.01.002c8.36 3.483 19.71 8.211 22.63 2.059l8.61-15.688h101.2v179.91h38.73v108.47s-5.4.98-22.55.98c-17.16 0-16.18 17.03-16.18 17.03v127.94h-111.09l.58-18.86c-.19.06-.38.13-.58.2-.36.12-.72.26-1.11.4-15.19 5.65-30.9 11.32-47.87 16.13-26.46 7.5-55.98 12.92-91.41 12.92-30.88 0-86.74-10.24-135.66-42.9a213.2 213.2 0 0 1-6.99-4.85c-18.19-13.17-35.11-29.57-49.02-49.7v91.57h-260.79v-53.27c-10.71 10.52-23.15 18.92-35.87 25.46-4.31 2.21-8.71 4.25-13.15 6.12-31.528 13.26-65.625 18.18-89.208 18.74H623.67l1.377-113.24 26.196-.89c6.801-.57 10.627-8.9 10.663-17.16Zm1159.034 16.19c-.7-3.87-1.58-8.73-2.69-14.8l2.69 14.8Z" clip-rule="evenodd"/><path fill="url(#j)" d="M815.21 1627c-1.562-8.21-3.535-13.04-5.349-15.68-.963-1.39-1.647-1.82-2.05-2.03-.459-.23-1.791-.79-4.811-.79h-12.5v18.45c.75.03 1.58.05 2.5.05h22.21Z"/><path fill="url(#k)" d="M795 1508h30.839c.653-2.23 1.161-5.13 1.161-8.5 0-3.8-.447-6.57-.958-8.5H795v17Z"/><path fill="url(#l)" d="m824.579 1487.42.021.03-.011-.02h-.005l-.005-.01Z"/><path fill="url(#m)" fill-rule="evenodd" d="M972 1692.12c9.353-8.78 13.507-19.86 15.309-31.51.643-4.16.986-8.39 1.159-12.61.012-.27.022-.55.032-.82.128-3.55.141-7.09.117-10.57-.012-1.76-.034-3.5-.055-5.23v-.01c-.031-2.5-.062-4.97-.062-7.37H963c0 18.38-3.555 18.99-6.057 19.42-.152.03-.3.05-.443.08-7.664 0-9.145-10.09-9.431-19.5-.021-.68-.036-1.37-.046-2.04-.023-1.54-.023-3.05-.023-4.46 0-6.61-.738-12.39-2.046-17.5-3.553-13.87-11.309-22.79-19.928-30.02-3.512-2.95-7.167-5.61-10.738-8.22-3.968-2.89-7.835-5.71-11.288-8.76 9.715-3.64 17.95-7.31 24.912-11.01 36.038-19.11 38.021-38.88 35.088-58.99-11.5-55.5-67.5-69-90-69H636v56s24.365 3.05 24.365 25.47V1624c0 8.97-4.873 31-24.365 31v48h157v-52c-15.505 0-26.5-3.44-26.5-21.72v-30.78c0-15.2 7-15.67 10.5-14h26c24.5 0 34 18.72 37.5 49.5 2.331 20.5 4.755 39 17.5 54 17.6 20.71 58 22.79 66 22 23.455-2.33 38.442-8.9 48-17.88Zm-201-208.45v38.85c0 4.06 3.461 9.48 9 9.48h54.773c7.727 0 16.227-14.5 16.227-32.5 0-22.5-10.561-32.5-16.227-32.5h-50.957c-3.498 0-12.816 0-12.816 16.67Z" clip-rule="evenodd"/><path fill="url(#n)" d="M947.748 1558.3c2.81 2.84 5.566 5.99 8.113 9.48 6.57 8.99 11.354 19.57 13.637 32.22h26.867v-104.53c0-1.44-.136-2.36-.255-2.9l-.062-.02c-.619-.19-1.395-.34-2.218-.41l-5.941-.54c.412 12.2-1.659 26.36-11.222 40.45-6.709 9.87-16.301 18.5-28.919 26.25Z"/><path fill="url(#o)" d="M1012.14 1654.59c-3.71 3.56-8.92 6.02-16.14 6.02V1703h157v-45.34c-15.5 0-26.5-10.1-26.5-28.38v-133.81c.03-.34.06-.68.08-1.03.03-.35.05-.71.08-1.08.71-9.88 1.63-22.75 26.34-28.12V1414H996v54.24c8.12.74 24.36 4.81 24.36 27.23v138.23c0 5.65-1.93 14.85-8.22 20.89Z"/><path fill="url(#p)" d="M1462.74 1471.7c8.44 1.16 22.47 6.05 22.47 26.8v134.68c0 8.91-4.84 21.79-24.21 21.79V1702h157v-48.03c-15.41 0-27.5-8.31-27.5-26.47V1584h.71c.32-3.24 2.04-9.72 11.58-9.72h57.72c3.03 0 7.14 1.23 8.7 5.64v53.26c0 8.91-4.84 21.79-24.21 21.79V1702h157v-48.03c-15.41 0-27.5-8.31-27.5-26.47V1505l.05-.57.01-.12c.87-10.35 2.76-32.81 27.44-32.81V1415h-157v56.5c8.07.73 24.21 4.74 24.21 27v24.98c-.86 4.95-4.43 8.55-11.14 8.55h-52.5l-.29-.02c-4.44-.35-14.07-1.11-14.07-11.01h-.71v-16l.06-.69c.15-1.79.33-3.94.65-6.27.03-.18.05-.35.08-.53.02-.17.05-.34.08-.51 1.71-11.06 6.84-25.5 26.63-25.5V1415h-157v56.5c.55.05 1.13.11 1.74.2Z"/><path fill="url(#q)" d="M1438.74 1414.25h-39.64c-.31.67-.6 1.32-.9 1.95l-.01.03c-6.75 14.7-10.43 22.71-21.15 17.86-15.52-19.45-64.69-19.34-85.68-17.78-46.36 0-128.36 46.69-128.36 153.15 0 106.46 102.65 141.04 137.5 141.04 34.85 0 138.24-6.5 138.24-100v-39h-76.24c0 72.5-27.34 73.4-39.81 72.5-24.5-1.77-27.39-15.24-30.43-29.4-.29-1.36-.59-2.73-.9-4.1-1.56-14.01-.88-48.53-.37-73.99.2-9.89.37-18.42.37-23.84 0-22.67 17.64-38.17 36.14-38.17 19.81 0 31 22.22 32.92 38.17l2.23 25.73h76.09v-124.15Z"/><path fill="url(#r)" d="M1336.55 1515.21c-.59-4.35-2.53-9.71-5.27-13.45-1.3-1.78-2.37-2.64-2.95-2.99-.43-.26-.59-.27-.83-.27-5.29 0-12.14 4.8-12.14 14.17 0 5.66-.17 14.36-.37 24.01v.31c-.51 25.69-1.08 56.79.1 69.64.22.99.43 1.95.61 2.83l.03.1c.81 3.79 1.31 6 1.92 7.85.25.75.45 1.23.58 1.51.68.28 2.5.88 6.19 1.14 3.99.29 4.39-.15 5.04-.87l.01-.02.09-.09c2.2-2.4 8.94-13.11 8.94-47.58v-24h.85l-2.8-32.29Z"/><path fill="url(#s)" d="M1799.8 1495.72c-.06.01-.08.03-.08.03s.01-.01.02-.01c.02-.01.03-.01.06-.02Z"/><path fill="url(#t)" fill-rule="evenodd" d="M574 1352h299c16.248 0 38.415 3.42 61 12.69V1352h281v22.15c25.02-12.76 50.88-19.36 73.84-19.82 13.22-.87 34.18-1.27 55.47 1.52 3.94.52 8.15 1.17 12.51 2.02l2.6-5.62h141.32v.75H1864v180.5h-27.5v58.47h27.5V1764h-465v-8.12c-39.77 15.31-80.31 16.62-98.5 16.62-23.08 0-54.58-7.2-85.5-22.58V1765H964.868c-10.957 3.3-22.606 5.49-34.742 6.7-11.932 1.18-30.833 0-49.212-4.16-6.96-1.58-16.074-4.06-25.914-8.13v5.59H574v-172h24.365v-65.23L574 1524.71V1352Zm38 38h261c14.915 0 38.69 4.22 60.932 16.79 14.04 7.94 27.799 19.43 38.068 35.39V1390h205v63.35c32.33-40.9 78.88-60.69 113.43-61.04 11.56-.81 30.38-1.22 48.94 1.22 9.51 1.24 19.74 3.33 29.2 6.92 2.82 1.07 5.75 2.34 8.68 3.86l6.49-14.06h79v.75H1826v104.5h-24c-.42 0-.78.02-1.08.04-.2.01-.38.03-.52.06-.33.71-.73 1.91-1.09 3.76-.4 2.07-.6 4.15-.81 6.65v121.49c0 .98.08 1.66.17 2.08.57.18 1.62.39 3.33.39h24V1726h-389v-40.71c-12.76 14.98-28.71 25.22-44.63 32.23-34.93 15.4-73.64 16.98-91.87 16.98-22.85 0-62.13-10.47-95.98-35.23-9.71-7.09-19.06-15.44-27.52-25.13V1727H972v-5.7c-12.323 6.56-27.502 10.78-45.629 12.58-7.07.7-21.803.05-37.069-3.41-14.875-3.36-35.677-10.55-49.591-26.93-17.233-20.28-20.525-44.68-22.711-63.78V1727H612v-96h22.62c.467-.92.936-2.21 1.284-3.73.39-1.7.461-2.96.461-3.27v-128.53a8.2 8.2 0 0 0-.004-.24 4.11 4.11 0 0 0-.301-.19c-.773-.45-1.766-.83-2.695-1.09-.34-.1-.6-.16-.742-.19L612 1491.18V1390Z" clip-rule="evenodd"/><path fill="#000" d="m634.022 1631.97.781.63h-.003c-.001 0-.002 0-.003.01h-.006c-.005.01-.009.01-.013.02-.008.01-.016.02-.024.02l-1.455-1.37c-.011.01-.022.03-.032.04-.004 0-.009.01-.014.01-.002.01-.004.01-.006.01h-.003l-.002.01h-.001l.781.62Zm190.086-119.91.817.57h-.001l-.002.01h-.004c-.002 0-.004.01-.006.01-.003.01-.007.01-.009.01l-1.571-1.24c-.009.02-.017.03-.024.04-.003 0-.006 0-.009.01h-.005c0 .01-.001.01-.002.01h-.001l.817.58Zm335.922-945.788-1.67-1.092v.002l1.67 1.09Zm-14.86 22.82 1.67 1.093-1.67-1.093Zm17.12-25.903 1.58 1.223v-.003l-1.58-1.22Zm.02-.028-1.56-1.25-.01.015-.01.014 1.58 1.221Zm0-.002 1.56 1.25.01-.014.01-.013-1.58-1.223Zm4.15-7.557-1.98-.274v.003l1.98.271Zm-2.28-7.279-1.78.922v.001l1.78-.923Zm-1.69-3.548-1.87.713v.005l1.87-.718Zm-.88-28.316 1.91.595-1.91-.595Zm16.83-22.812-1.14-1.648 1.14 1.648Zm53.49 3.351 1.34-1.485-1.34 1.485Zm9.2 53.202-1.76-.962v.002l1.76.96Zm-2.16 3.695-1.71-1.029v.002l1.71 1.027Zm-.01.024-1.72-1.027v.003l1.72 1.024Zm-1.08 1.81-1.72-1.024-.63 1.064.67 1.043 1.68-1.083Zm27.87 43.307-1.68 1.082 1.11 1.721 1.69-1.146-1.12-1.657Zm15.95-10.785 1.12 1.657.75-.505.12-.893-1.99-.259Zm.59-5.398-1.99-.191 1.99.191Zm1.55-10.175 1.92.529v-.001l-1.92-.528Zm40.26-27.326.26-1.983v-.001l-.26 1.984Zm33.34 36.691-2 .051v.001l2-.052Zm-17.53 32.758 1.06 1.699v-.004l-1.06-1.695Zm-3.23 6.091 1.99.133v-.001l-1.99-.132Zm-.02.25-2-.133-.18 2.733 2.66-.658-.48-1.942Zm4.04-1.036-.49-1.94-.01.002-.01.003.51 1.935Zm0 0 .49 1.94.01-.003.01-.002-.51-1.935Zm8.69-2.069-.37-1.964.37 1.964Zm9.04-7.922-1.9-.629v.006l1.9.623Zm31.32-22.459-.07-1.999.07 1.999Zm32.13 18.935 1.81-.851v-.001l-1.81.852Zm-12.48 44.511-.96-1.759v.002l.96 1.757Zm-2.94 3.155 1.84.783-1.84-.783Zm-.71 2.596 1.97.354v-.005l-1.97-.349Zm-11.08 61.491 1.97.356v-.001l-1.97-.355Zm-6.3 34.733-1.96-.358 1.96.358Zm-.03.171 1.97.357-1.97-.357Zm-3.71 20.47 1.42 1.409.43-.441.12-.611-1.97-.357Zm-.28.278-1.42-1.41v.001l1.42 1.409Zm-.33.323-1.36-1.462-.05.048-.05.051 1.46 1.363Zm-.47.339.61 1.903.1-.032.1-.042-.81-1.829Zm-1.75.342v2h.07l.07-.005-.14-1.995Zm-358.96 0-.14 1.994.07.006h.07v-2Zm-2.92-.38-1.96.393.26 1.327 1.33.246.37-1.966Zm-3.54-18.045 1.97-.368v-.005l-1.97.373Zm-5.48-28.912-1.97.372v.001l1.97-.373Zm-13.796-73.216-1.966.367.001.002 1.965-.369Zm-4.12-6.297-1.348 1.477.001.002 1.347-1.479Zm-10.729-35.489-1.941-.484v.001l1.941.483Zm32.945-25.018.01-2-.01 2Zm33.23 24.765 1.94-.496v-.001l-1.94.497Zm7.12 6.423.3-1.978-.3 1.978Zm9.41 1.92-.45 1.949.45-1.949Zm4.15.938-.42 1.955 1.74.376.58-1.682-1.9-.649Zm-1.16-5.564 1.01-1.725-.01-.005-.01-.004-.99 1.734Zm-.84-.478 1-1.735v-.002l-1 1.737Zm-.18-.106.99-1.736-.99 1.736Zm-1.07-.619-1.03 1.713.01.004 1.02-1.717Zm-10.44-54.286-1.62-1.174v.001l1.62 1.173Zm36.87-14.623.39-1.961-.39 1.961Zm30.02 28.555-1.93.512v.005l1.93-.517Zm1.29 8.97-1.99.172v.022l1.99-.194Zm0 .006 2-.171-.01-.012v-.011l-1.99.194Zm.45 4.521-1.99.241.11.869.71.512 1.17-1.622Zm14.82 10.689-1.17 1.622 1.7 1.226 1.15-1.756-1.68-1.092Zm237.24 162.103v2h1.57l.37-1.52-1.94-.48Zm-348.24 0-1.96.383.32 1.617h1.64v-2Zm348.74-1.937 1.93.506-1.93-.506Zm.96-4.076-1.97-.364v.002l1.97.362Zm3.57-19.314 1.97.364-1.97-.364Zm15.75-85.854 1.97.354-1.97-.354Zm6.13-8.469-.82-1.825.82 1.825Zm10.54-9.892-1.76-.934v.001l1.76.933Zm2.22-14.276 1.97-.353v-.01l-1.97.363Zm-23.82-19.705.01 2-.01-2Zm-23.73 20.493-1.99-.242v.001l1.99.241Zm-5.92 6.894.52 1.933-.52-1.933Zm-19.1 5.57-.58-1.914-.02.005-.01.005.61 1.904Zm0 0 .58 1.914.02-.005.01-.005-.61-1.904Zm-.16.049-.59-1.913v.001l.59 1.912Zm-.01.002.58 1.913h.01l-.59-1.913Zm-9.57 2.878.45 1.949.06-.014.06-.017-.57-1.918Zm-1.77.359.34 1.97-.34-1.97Zm-2.31.326h-2v2.228l2.22-.24-.22-1.988Zm0-22.856-.86-1.805-1.14.544v1.261h2Zm18.26-36.487-1.9.619 1.9-.619Zm-31.5-19.392.33 1.973.01-.003.02-.003-.36-1.967Zm-18.12 10.887 1.58 1.225v-.007l.01-.006-1.59-1.212Zm-4.9 26.255 1.12 1.661 1.12-.756-.28-1.325-1.96.42Zm-30.12 20.221-1.68 1.084 1.1 1.713 1.7-1.136-1.12-1.661Zm-37.1-57.562-1.59-1.213-.85 1.116.76 1.181 1.68-1.084Zm-.18-50.418-1.38 1.453.01.001 1.37-1.454Zm-44.86-.602 1.3 1.519v-.001l-1.3-1.518Zm-1.54 50.381 1.67 1.093.74-1.126-.77-1.106-1.64 1.139Zm-37.95 58.147-1.17 1.623 1.7 1.223 1.14-1.753-1.67-1.093Zm-28.48-20.486-1.97-.316-.2 1.219 1 .72 1.17-1.623Zm.3-1.796 1.97.335v-.001l-1.97-.334Zm.5-3.216 1.98.244v-.017l-1.98-.227Zm-39.36-30.02-.75-1.851.75 1.851Zm-10.9 43.405 1.49-1.332-1.49 1.332Zm7.65 5.883-1.08 1.686.03.018.03.018 1.02-1.722Zm0 .001 1.07-1.687-.03-.018-.03-.017-1.01 1.722Zm.03.019-1.08 1.686.01.005 1.07-1.691Zm0 .001-1.07 1.691.01.005 1.06-1.696Zm0 .001-1.06 1.696.01.007 1.05-1.703Zm0 .001 1.08-1.687-.02-.008-.01-.009-1.05 1.704Zm4.03 2.672h2v-1.028l-.84-.598-1.16 1.626Zm0 22.795-.09 1.998 2.09.09v-2.088h-2Zm-4.49-.432-.42 1.957.06.012.06.009.3-1.978Zm-9.25-1.977-.42 1.954.42-1.954Zm-14.25-3.137-.44 1.951.01.001.43-1.952Zm-6.82-7.248 1.97-.337-1.97.337Zm-.02-.102-1.97.337v.001l1.97-.338Zm-16.87-20.12-.68 1.88.68-1.88Zm-30.195 12.067 1.781.91-1.781-.91Zm8.585 29.684-1.08 1.683.05.032.06.028.97-1.743Zm2.58 2.347 1.64-1.132-1.64 1.132Zm.9 1.766-1.89.671v.001l1.89-.672Zm.36 1.474-1.98.288.01.042.01.042 1.96-.372Zm12.77 66.37 1.96-.381-1.96.381Zm2.8 14.443-1.97.381v.001l1.97-.382Zm3.47 17.812-1.96.383v.034l.01.033 1.95-.45Zm0 .001 1.97-.358-.01-.046-.01-.045-1.95.449Zm0 .001-1.97.358.01.013v.012l1.96-.383Zm350.81-115.072.55 1.921 1.2-.348.22-1.234-1.97-.339Zm-60 17.364-2-.002-.01 2.664 2.56-.741-.55-1.921Zm60.8-22.157-1.97-.33v.001l1.97.329Zm.01-.02 1.97.331v-.002l-1.97-.329Zm.84-4.962-1.97-.343-.01.001 1.98.342Zm14.65-13.372.01 2-.01-2Zm14.72 12.788 1.97-.366v-.001l-1.97.367Zm-10.14 17.632.45 1.948-.45-1.948Zm-7.39 8.456-1.97-.369v.002l1.97.367Zm-13.98 73.56 1.97.377v-.001l-1.97-.376Zm-.03.187-1.97-.378v.001l1.97.377Zm-4.42 23.052 1.97.376-1.97-.376Zm-1.05 5.016-1.96-.43v.003l1.96.427Zm-.49 2.203v2h1.62l.34-1.574-1.96-.426Zm-332.86 0-1.96.407.33 1.593h1.63v-2Zm-23.45-112.673 1.96-.407-.21-1.022-.96-.41-.79 1.839Zm-11.91-21.854-1.795-.876-.001.003 1.796.873Zm3.53-4.625-1.31-1.504v.001l1.31 1.503Zm1.74-1.307-1.09-1.68 1.09 1.68Zm3.31-1.595.64 1.896v-.001l-.64-1.895Zm2.8-.645-.26-1.984.26 1.984Zm2.98-.084-.15 1.995h.01l.14-1.995Zm5.61 1.556.91-1.78v-.005l-.91 1.785Zm4.3 23.501-1.77-.93-1.19 2.27 2.49.604.47-1.944Zm57.73 13.996-.47 1.944 1.89.458.51-1.876-1.93-.526Zm.41-41.966 1.97-.326-.2-1.22-1.18-.365-.59 1.911Zm-16.75-26.13 1.9.625v-.002l-1.9-.623Zm9.48-11.198.93 1.771-.93-1.771Zm14.61-1.433.58-1.914-.01-.004-.57 1.918Zm11.19 30.394-1.9-.594-.43 1.376 1.17.842 1.16-1.624Zm42.13 30.305-1.17 1.623 1.7 1.223 1.15-1.754-1.68-1.092Zm48.06-73.691 1.67 1.093.98-1.503-1.38-1.137-1.27 1.547Zm-6.88-39.157 1.46 1.366.01-.008-1.47-1.358Zm8.02-5.745.82 1.828v-.001l-.82-1.827Zm9.64-2.119.03 2-.03-2Zm9.7 1.85.76-1.849-.76 1.849Zm3.07 1.524-1.01 1.724v.001l1.01-1.725Zm5.11 3.995 1.43-1.399-1.43 1.399Zm-7.57 39.784-.98-1.745-1.85 1.038 1.15 1.789 1.68-1.082Zm47.22 73.383-1.68 1.082 1.1 1.718 1.7-1.141-1.12-1.659Zm44.43-29.937 1.12 1.659 1.42-.958-.73-1.552-1.81.851Zm-1.03-2.147-1.8.868v.009l1.8-.877Zm-.01-.009 1.8-.868v-.01l-1.8.878Zm-.03-.076-1.8.876v.002l1.8-.878Zm-1.41-3.042-1.85.749v.017l1.85-.766Zm-.96-11.23-1.95-.424 1.95.424Zm5.53-9.824-1.36-1.467-.01.008-.01.009 1.38 1.45Zm19.54-3.807.7-1.871v-.001l-.7 1.872Zm11.29 17.684 2 .013v-.001l-2-.012Zm-5.5 11.639 1.39 1.438-1.39-1.438Zm-16.55 8.632-.44-1.951-1.56.35v1.599l2 .002ZM612.885 1116.28l.068 2 1.932-.07v-1.93h-2Zm-36.287 1.24-.068-2-1.908.06-.024 1.91 2 .03Zm36.287-99.18h2v-2h-2v2Zm-37.118 0-2 .03.029 1.97h1.971v-2Zm-1.059-71.416 1.999-.03v-.037l-.002-.038-1.997.105Zm-.601-49.897 2 .025-2-.025Zm1.1-42.726-1.999-.056 1.999.056Zm.245-8.925-1.999-.048 1.999.048Zm1.145-47.273-.024-2-1.929.023-.046 1.928 1.999.049Zm362.82-4.283v-2h-.024l.024 2Zm83.873 16.641-.71 1.871 2.71 1.026v-2.897h-2Zm0-13.7v-2h-2v2h2Zm358.83 0h2v-2h-2v2Zm0 33.934h-2v3.461l3-1.728-1-1.733Zm140.35-40.295.02 2h.04l.04-.002-.1-1.998Zm82.66 4.683-.31 1.976.31-1.976Zm35.5 7.587-.54 1.925 1.53.43.76-1.394-1.75-.961Zm5.39-9.831v-2h-1.18l-.57 1.038 1.75.962Zm179.25 0h2v-2h-2v2Zm0 179.91h-2v2h2v-2Zm38.73 0h2v-2h-2v2Zm0 198.401.36 1.97 1.64-.3v-1.67h-2Zm-38.73 7.04-.35-1.97-1.65.3v1.67h2Zm0 147.02v2h2v-2h-2Zm-210.67 0-1.99-.06-.07 2.06h2.06v-2Zm.01-.04 2 .07.08-2.63-2.56.62.48 1.94Zm-232.49-28 .97-1.74-2.97-1.65v3.39h2Zm0 32.95v2h2v-2h-2Zm-358.83 0h-2v2h2v-2Zm0-18.39h2v-2.77l-2.64.88.64 1.89Zm-88.056 15.42-.047-1.99h-.001l.048 1.99Zm-.575.02v2h.047l-.047-2Zm-360.61.01-2-.03-.025 2.03h2.025v-2Zm87.857-180.44 2 .01v-.01h-2Zm0 .12 2 .01v-.01h-2Zm-37.84-177.543-1.999.03.029 1.97h1.97v-2Zm-.357-24.077 2-.03-.001-.04-.002-.041-1.997.111Zm-.584-47.606 2 .024-2-.024Zm1.045-40.533-1.999-.058v.002l1.999.056Zm0-.001 2 .057v-.002l-2-.055Zm.289-10.537-.023-2-1.93.023-.046 1.928 1.999.049Zm315.247-3.721v-2h-.023l.023 2Zm83.584 20.985.88-1.795-.88 1.795Zm5.73 2.955.95-1.761-.95 1.761Zm43.29 35.459-1.59 1.223 3.59 4.635v-5.858h-2Zm0-56.458v-2h-2v2h2Zm260.79 0h2v-2h-2v2Zm0 94.054h-2v6.42l3.65-5.284-1.65-1.136Zm48.18-49.931 1.2 1.596-1.2-1.596Zm.84-.633 1.2 1.601-1.2-1.601Zm141.87-49.862.01 2h.05l.06-.003-.12-1.997Zm73.56 4.104-.31 1.976.31-1.976Zm41.09 9.91-.67 1.884.67-1.884Zm5.16 2.059.78-1.84-.01-.003v-.003l-.77 1.846Zm0 .002-.78 1.84.01.003v.003l.77-1.846Zm0 .001.78-1.842-.01-.005-.77 1.847Zm.01.002-.78 1.842.01.004.77-1.846Zm22.63 2.059-1.75-.962-.03.05-.02.052 1.8.86Zm8.61-15.688v-2h-1.19l-.57 1.039 1.76.961Zm101.2 0h2v-2h-2v2Zm0 179.91h-2v2h2v-2Zm38.73 0h2v-2h-2v2Zm0 108.47.36 1.96 1.64-.29v-1.67h-2Zm-38.73 18.01h2v-.12l-2 .12Zm0 127.94v2h2v-2h-2Zm-111.09 0-2-.06-.06 2.06h2.06v-2Zm.58-18.86 2 .06.09-2.87-2.73.92.64 1.89Zm-.58.2-.66-1.89.66 1.89Zm-1.11.4-.69-1.88.69 1.88Zm-47.87 16.13-.55-1.92.55 1.92Zm-227.07-29.98 1.11-1.66-1.11 1.66Zm-6.99-4.85-1.17 1.62 1.17-1.62Zm-49.02-49.7 1.64-1.14-3.64-5.27v6.41h2Zm0 91.57v2h2v-2h-2Zm-260.79 0h-2v2h2v-2Zm0-53.27h2v-4.77l-3.4 3.34 1.4 1.43Zm-35.87 25.46-.92-1.78.92 1.78Zm-13.15 6.12-.78-1.84.78 1.84Zm-89.208 18.74v2h.047l-.047-2Zm-310.412 0-2-.02-.025 2.02h2.025v-2Zm1.377-113.24-.069-2-1.908.07-.023 1.91 2 .02Zm26.196-.89.068 2h.05l.05-.01-.168-1.99Zm1167.007-15.77 1.97-.36-3.94.71 1.97-.35Zm2.69 14.8-1.97.36.95 5.25 2.74-4.58-1.72-1.03Zm0 0 1.72 1.03.39-.65-.14-.74-1.97.36Zm-297.66-298.661v2h.06l.06-.004-.12-1.996Zm130.4 369.161.7 1.87-.7-1.87Zm36.28 16.66-2-.06-.07 2.06h2.07v-2Zm59.31 0v2h2v-2h-2Zm38.73-148.05-.23 1.99 2.23.25v-2.24h-2Zm0-55.4h2v-2h-2v2Zm-216.68 0v-2h-2v2h2Zm0 56.87h-2v1.86l1.86.13.14-1.99Zm37.77 29.75 2 .02-2-.02Zm-51 40.35-.12 2 .12-2Zm-62.86-60.79-1.98.27.02.14.03.13 1.93-.54Zm5.5-130.402-1.73-1 1.73 1Zm128.44 8.334 1.98-.228v-.061l-1.98.289Zm3.43 29.908-1.99.23.21 1.77h1.78v-2Zm116.67 0v2h2v-2h-2Zm0-153.94h2v-2h-2v2Zm-60.79 0v-2h-1.17l-.57 1.023 1.74.977Zm-.5.901-1.74-.977-.01.001 1.75.976Zm-.89 1.589-1.74-.977v.001l1.74.976Zm-32.43 22.512-1.44 1.394.32.324.42.157.7-1.875ZM647.648 943.319l-1.997.111.105 1.889h1.892v-2Zm0 245.611.163-1.99-2.163-.18v2.17h2Zm0 63.24h-2v2h2v-2Zm284.329 0v2h.047l-.047-2Zm78.523-195.83-.92 1.78.92-1.78Zm-.01 0 .92-1.78-.92 1.78Zm-16.254-8.6-.793-1.83-3.742 1.61 3.567 1.97.968-1.75Zm3.604-1.54.783 1.84h.008l.008-.01-.799-1.83Zm.004 0-.786-1.84-.013.01.799 1.83Zm.015-.01-.783-1.84h-.004l.787 1.84ZM938.35 867.821v-2h-.024l.024 2Zm-290.702 3.432-.024-2-1.914.022-.061 1.914 1.999.064Zm448.642 67.654h-2v1.826l1.82.166.18-1.992Zm0-68.145v-2h-2v2h2Zm0 327.978v-2h-2v2h2Zm0 56.38h-2v2h2v-2Zm209.82 0v2h2v-2h-2Zm0-60.3h2v-2h-2v2Zm-45.59-215.713-1.99-.17-.01.085v.085h2Zm45.59-40.2v2h2v-2h-2Zm0-68.145h2v-2h-2v2ZM574 1352v-2h-2v2h2Zm360 12.69-.759 1.85 2.759 1.13v-2.98h-2Zm0-12.69v-2h-2v2h2Zm281 0h2v-2h-2v2Zm0 22.15h-2v3.27l2.91-1.48-.91-1.79Zm73.84-19.82.04 2h.09l-.13-2Zm55.47 1.52.26-1.98-.26 1.98Zm12.51 2.02-.38 1.97 1.54.3.66-1.43-1.82-.84Zm2.6-5.62v-2h-1.28l-.54 1.17 1.82.83Zm141.32 0h2v-2h-2v2Zm0 .75h-2v2h2v-2Zm363.26 0h2v-2h-2v2Zm0 180.5v2h2v-2h-2Zm-27.5 0v-2h-2v2h2Zm0 58.47h-2v2h2v-2Zm27.5 0h2v-2h-2v2Zm0 172.03v2h2v-2h-2Zm-465 0h-2v2h2v-2Zm0-8.12h2v-2.91l-2.72 1.04.72 1.87Zm-184-5.96.89-1.79-2.89-1.44v3.23h2Zm0 15.08v2h2v-2h-2Zm-250.132 0v-2h-.295l-.282.08.577 1.92Zm-34.742 6.7.197 1.99h.001l-.198-1.99Zm-49.212-4.16-.441 1.95.441-1.95ZM855 1759.41l.765-1.85-2.765-1.14v2.99h2Zm0 5.59v2h2v-2h-2Zm-281 0h-2v2h2v-2Zm0-172v-2h-2v2h2Zm24.365 0v2h2v-2h-2Zm0-65.23h2V1526l-1.752-.22-.248 1.99ZM574 1524.71h-2v1.77l1.751.22.249-1.99ZM612 1390v-2h-2v2h2Zm321.932 16.79.984-1.74-.984 1.74ZM972 1442.18l-1.682 1.08 3.682 5.72v-6.8h-2Zm0-52.18v-2h-2v2h2Zm205 0h2v-2h-2v2Zm0 63.35h-2v5.76l3.57-4.51-1.57-1.25Zm113.43-61.04.02 2h.12l-.14-2Zm48.94 1.22-.26 1.98.26-1.98Zm29.2 6.92-.71 1.87.71-1.87Zm8.68 3.86-.92 1.78 1.86.97.88-1.91-1.82-.84Zm6.49-14.06v-2h-1.28l-.54 1.17 1.82.83Zm79 0h2v-2h-2v2Zm0 .75h-2v2h2v-2Zm363.26 0h2v-2h-2v2Zm0 104.5v2h2v-2h-2Zm-25.08.04.16 1.99-.16-1.99Zm-.52.06-.29-1.98-1.08.15-.46 1 1.83.83Zm-1.09 3.76 1.96.38-1.96-.38Zm-.81 6.65-1.99-.17-.01.09v.08h2Zm.17 123.57-1.97.38.23 1.18 1.15.35.59-1.91Zm27.33.39h2v-2h-2v2Zm0 96.03v2h2v-2h-2Zm-389 0h-2v2h2v-2Zm0-40.71h2v-5.43l-3.52 4.13 1.52 1.3Zm-44.63 32.23.81 1.83-.81-1.83Zm-187.85-18.25 1.18-1.61-1.18 1.61Zm-27.52-25.13 1.51-1.32-3.51-4.02v5.34h2Zm0 52.86v2h2v-2h-2Zm-205 0h-2v2h2v-2Zm0-5.7h2v-3.33l-2.94 1.57.94 1.76Zm-45.629 12.58.198 1.99-.198-1.99Zm-37.069-3.41-.441 1.95.441-1.95Zm-49.591-26.93 1.524-1.29-1.524 1.29ZM817 1639.76l1.987-.23-3.987.23h2Zm0 87.24v2h2v-2h-2Zm-205 0h-2v2h2v-2Zm0-96v-2h-2v2h2Zm22.62 0v2h1.229l.555-1.1-1.784-.9Zm1.284-3.73-1.95-.44 1.95.44Zm.457-132.04 1.998-.07-.035-1.03-.852-.56-1.111 1.66Zm-.301-.19-1.011 1.73h.001l1.01-1.73Zm-2.695-1.09.537-1.93-.537 1.93Zm-.742-.19.405-1.95-.078-.02-.078-.01-.249 1.98ZM612 1491.18h-2v1.76l1.751.22.249-1.98Zm197.861 120.14-1.647 1.14 1.647-1.14Zm5.349 15.68v2h2.417l-.452-2.37-1.965.37Zm-7.399-17.71.908-1.78h-.001l-.907 1.78Zm-17.311-.79v-2h-2v2h2Zm0 18.45h-2v1.93l1.92.07.08-2Zm196.809 33.66 1.977.3-1.977-.3ZM972 1692.12l-1.369-1.45 1.369 1.45Zm16.468-44.12-1.998-.08 1.998.08Zm.032-.82-1.999-.07 1.999.07Zm.117-10.57-2 .01 2-.01Zm-.055-5.23 2-.02v-.01l-2 .03Zm0-.01-2 .03 2-.03Zm-.062-7.37h2v-2h-2v2Zm-25.5 0v-2h-2v2h2Zm-6.057 19.42.338 1.97-.338-1.97Zm-.443.08v2h.198l.195-.04-.393-1.96Zm-9.431-19.5-1.999.06 1.999-.06Zm-.046-2.04-2 .03 2-.03Zm-2.069-21.96-1.938.5 1.938-.5Zm-19.928-30.02 1.285-1.53-1.285 1.53Zm-10.738-8.22-1.179 1.62 1.179-1.62ZM903 1553l-.702-1.87-3.118 1.17 2.497 2.2L903 1553Zm24.912-11.01-.937-1.76.937 1.76ZM963 1483l1.979-.29-.008-.06-.013-.06-1.958.41Zm-327-69v-2h-2v2h2Zm0 56h-2v1.76l1.751.22.249-1.98Zm0 185v-2h-2v2h2Zm0 48h-2v2h2v-2Zm157 0v2h2v-2h-2Zm0-52h2v-2h-2v2Zm-16-66.5-.86 1.81.408.19H777v-2Zm63.5 49.5 1.987-.23-1.987.23Zm17.5 54-1.524 1.29L858 1688Zm66 22 .198 1.99L924 1710Zm31.861-142.22-1.615 1.18 1.615-1.18Zm-8.113-9.48-1.047-1.7-2.146 1.31 1.77 1.8 1.423-1.41Zm21.75 41.7-1.968.36.297 1.64h1.671v-2Zm26.867 0v2h2v-2h-2Zm-.255-107.43 1.953-.43-.249-1.12-1.095-.35-.609 1.9Zm-.062-.02.61-1.9-.011-.01-.599 1.91Zm-2.218-.41-.181 1.99h.001l.18-1.99Zm-5.941-.54.181-1.99-2.256-.21.076 2.27 1.999-.07Zm-11.222 40.45-1.655-1.13 1.655 1.13ZM996 1660.61v-2h-2v2h2Zm16.14-6.02-1.39-1.44 1.39 1.44ZM996 1703h-2v2h2v-2Zm157 0v2h2v-2h-2Zm0-45.34h2v-2h-2v2Zm-26.5-162.19-1.99-.17-.01.08v.09h2Zm.08-1.03 2 .15-2-.15Zm.08-1.08-1.99-.14 1.99.14Zm26.34-28.12.42 1.95 1.58-.34v-1.61h-2Zm0-51.24h2v-2h-2v2Zm-157 0v-2h-2v2h2Zm0 54.24h-2v1.82l1.819.17.181-1.99Zm466.74 3.46-.27 1.98.27-1.98Zm-1.74 183.27v-2h-2v2h2Zm0 47.03h-2v2h2v-2Zm157 0v2h2v-2h-2Zm0-48.03h2v-2h-2v2Zm-27.5-69.97v-2h-2v2h2Zm.71 0v2h1.82l.17-1.81-1.99-.19Zm78-4.08h2v-.35l-.11-.32-1.89.67Zm-24.21 75.05v-2h-2v2h2Zm0 47.03h-2v2h2v-2Zm157 0v2h2v-2h-2Zm0-48.03h2v-2h-2v2ZM1774.5 1505l-1.99-.17-.01.09v.08h2Zm.05-.57 1.99.17-1.99-.17Zm.01-.12-1.99-.16h-.01l2 .16Zm27.44-32.81v2h2v-2h-2Zm0-56.5h2v-2h-2v2Zm-157 0v-2h-2v2h2Zm0 56.5h-2v1.83l1.82.16.18-1.99Zm24.21 51.98 1.97.35.03-.17v-.18h-2Zm-63.64 8.55-.16 2h.16v-2Zm-.29-.02.16-1.99-.16 1.99Zm-14.07-11.01h2v-2h-2v2Zm-.71 0h-2v2h2v-2Zm0-16-1.99-.17-.01.09v.08h2Zm.06-.69 1.99.17-1.99-.17Zm.65-6.27 1.99.27-1.99-.27Zm.08-.53 1.98.29-1.98-.29Zm.08-.51 1.97.31-1.97-.31Zm26.63-25.5v2h2v-2h-2Zm0-56.5h2v-2h-2v2Zm-157 0v-2h-2v2h2Zm0 56.5h-2v1.83l1.82.16.18-1.99Zm-61.9-57.25v-2h-1.28l-.54 1.17 1.82.83Zm39.64 0h2v-2h-2v2Zm-40.54 1.95 1.82.84-1.82-.84Zm-.01.03-1.82-.84 1.82.84Zm-21.15 17.86-1.56 1.25.3.38.44.19.82-1.82Zm-85.68-17.78v2h.07l.08-.01-.15-1.99Zm147.38 155.19h2v-2h-2v2Zm-76.24 0v-2h-2v2h2Zm-39.81 72.5-.14 1.99.14-1.99Zm-30.43-29.4-1.95.42 1.95-.42Zm-.9-4.1-1.99.22.01.12.03.11 1.95-.45Zm-.37-73.99 2 .04-2-.04Zm69.43-23.84 1.99-.18-.01-.03v-.03l-1.98.24Zm2.23 25.73-1.99.17.16 1.83h1.83v-2Zm76.09 0v2h2v-2h-2Zm-107.46-36.64-1.61 1.18 1.61-1.18Zm5.27 13.45 1.99-.17-.01-.05v-.05l-1.98.27Zm-8.22-16.44 1.03-1.71-1.03 1.71Zm-13.34 37.91-2-.04v.04h2Zm0 .01 2 .04v-.04h-2Zm0 .3 2 .04-2-.04Zm.1 69.64-1.99.18.01.13.03.12 1.95-.43Zm.61 2.83 1.96-.42-1.96.42Zm.03.1-1.96.42 1.96-.42Zm1.92 7.85 1.9-.63-1.9.63Zm.58 1.51-1.81.86.34.69.71.3.76-1.85Zm6.19 1.14.15-1.99-.15 1.99Zm5.04-.87-1.48-1.35v.01l1.48 1.34Zm.01-.02 1.49 1.35v-.01l-1.49-1.34Zm.09-.09-1.47-1.35 1.47 1.35Zm8.94-71.58v-2h-2v2h2Zm.85 0v2h2.19l-.19-2.17-2 .17Zm460.37-51.75-.92-1.78 1.41 3.72-.49-1.94Zm.08-.03.81 1.82-1.41-3.73.6 1.91Zm-.06.02-.66-1.89.66 1.89ZM825.839 1508v2h1.499l.421-1.44-1.92-.56ZM795 1508h-2v2h2v-2Zm31.042-17 1.933-.51-.395-1.49h-1.538v2ZM795 1491v-2h-2v2h2Zm29.6-3.55-1.557 1.25 3.169-2.43-1.612 1.18Zm-.021-.03 1.506-1.31-3.119 2.49 1.613-1.18Zm.01.01-1.585 1.22.014.02.015.02 1.556-1.26Zm-.005 0-1.612 1.18.013.02.014.02 1.585-1.22Zm333.776-922.248c-4.89 7.522-9.79 15.033-14.87 22.818l3.35 2.185c5.08-7.785 9.98-15.298 14.87-22.823l-3.35-2.18Zm2.35-3.215c-.79 1.011-1.63 2.098-2.35 3.213l3.35 2.183c.62-.957 1.36-1.914 2.16-2.951l-3.16-2.445Zm.02-.027-.03.029 3.17 2.44.02-.028-3.16-2.441Zm.02-.03v.001l3.12 2.499v-.001l-3.12-2.499Zm3.73-6.579c-.13.956-.55 1.967-1.23 3.096-.69 1.135-1.56 2.267-2.52 3.509l3.16 2.446c.93-1.204 1.95-2.521 2.78-3.888.83-1.374 1.54-2.918 1.77-4.621l-3.96-.542Zm-2.08-6.085c.67 1.279 1.25 2.41 1.65 3.488.39 1.074.52 1.912.43 2.594l3.96.547c.22-1.6-.14-3.149-.64-4.517-.5-1.364-1.21-2.731-1.85-3.958l-3.55 1.846Zm-1.78-3.753c.5 1.295 1.18 2.587 1.78 3.752l3.55-1.845c-.63-1.207-1.19-2.295-1.59-3.343l-3.74 1.436Zm-.92-29.63c-3.02 9.7-2.7 20.131.92 29.625l3.74-1.425a41.282 41.282 0 0 1-.84-27.009l-3.82-1.191Zm17.6-23.864a45.368 45.368 0 0 0-17.6 23.864l3.82 1.191a41.374 41.374 0 0 1 16.05-21.76l-2.27-3.295Zm55.97 3.514c-15.43-13.92-38.73-15.371-55.97-3.514l2.27 3.296c15.73-10.82 36.98-9.477 51.02 3.188l2.68-2.97Zm9.61 55.649c10.2-18.605 6.25-41.328-9.61-55.649l-2.68 2.97c14.51 13.096 18.08 33.8 8.78 50.755l3.51 1.924Zm-2.19 3.762c.78-1.298 1.51-2.513 2.19-3.764l-3.51-1.92c-.64 1.169-1.33 2.316-2.11 3.626l3.43 2.058Zm-.01.021.01-.024-3.43-2.053-.02.024 3.44 2.053Zm-1.08 1.809 1.08-1.811-3.44-2.048-1.08 1.81 3.44 2.049Zm27.83 41.2-27.87-43.307-3.36 2.165 27.87 43.306 3.36-2.164Zm13.15-11.36-15.95 10.785 2.24 3.314 15.95-10.785-2.24-3.314Zm-.28-3.932c-.17 1.743-.34 3.506-.58 5.33l3.97.518c.24-1.901.42-3.73.59-5.465l-3.98-.383Zm1.61-10.512c-.94 3.398-1.27 6.938-1.61 10.512l3.98.383c.35-3.642.66-6.83 1.48-9.838l-3.85-1.057Zm42.45-28.782c-18.72-2.453-37.32 10.016-42.45 28.782l3.85 1.056c4.63-16.89 21.39-28.058 38.08-25.871l.52-3.967Zm35.07 38.624c-.51-20.044-15.03-35.994-35.07-38.623l-.52 3.966c18.12 2.377 31.13 16.716 31.6 34.759l3.99-.102Zm-18.46 34.504c12.71-7.964 18.85-19.573 18.46-34.505l-3.99.104c.35 13.533-5.09 23.807-16.59 31.011l2.12 3.39Zm-2.3 4.528c.07-1.074.12-1.781.19-2.319.08-.525.15-.721.2-.809.1-.185.27-.376 1.91-1.396l-2.11-3.398c-1.32.815-2.63 1.577-3.34 2.932-.36.683-.52 1.405-.62 2.127-.1.71-.15 1.581-.22 2.598l3.99.265Zm-.02.252.02-.251-3.99-.266-.02.25 3.99.267Zm1.54-3.105c-1.33.347-2.66.694-4.01 1.03l.96 3.883c1.38-.343 2.74-.697 4.06-1.043l-1.01-3.87Zm8.83-2.098c-2.97.57-5.9 1.334-8.82 2.098l1.01 3.87c2.95-.77 5.74-1.499 8.56-2.039l-.75-3.929Zm7.51-6.581c-.75 2.28-1.67 3.675-2.77 4.607-1.12.938-2.6 1.563-4.74 1.974l.75 3.929c2.53-.485 4.74-1.306 6.57-2.847 1.83-1.548 3.09-3.666 3.99-6.416l-3.8-1.247Zm33.15-23.835c-14.66.559-28.53 9.895-33.15 23.829l3.8 1.258c4.03-12.17 16.31-20.587 29.5-21.09l-.15-3.997Zm34.01 20.082c-6.37-13.523-18.54-20.67-34.01-20.082l.15 3.997c13.95-.53 24.59 5.795 30.24 17.788l3.62-1.703Zm-13.34 47.122c8.54-4.628 13.53-12.925 15.57-21.693 2.02-8.748 1.17-18.196-2.23-25.428l-3.62 1.701c2.97 6.332 3.8 14.851 1.95 22.824-1.84 7.952-6.28 15.128-13.58 19.078l1.91 3.518Zm-2.05 2.179c.36-.849.92-1.564 2.05-2.181l-1.91-3.514c-1.95 1.062-3.12 2.477-3.82 4.129l3.68 1.566Zm-.58 2.162c.16-.876.33-1.573.58-2.162l-3.68-1.566c-.42.998-.66 2.039-.84 3.029l3.94.699Zm-11.08 61.497 11.08-61.492-3.94-.709-11.07 61.492 3.93.709Zm-6.3 34.735c2.1-11.547 4.21-23.141 6.3-34.734l-3.93-.712c-2.1 11.592-4.21 23.184-6.3 34.731l3.93.715Zm-.03.171.03-.171-3.93-.715-.03.172 3.93.714Zm-3.71 20.47c1.23-6.801 2.47-13.627 3.71-20.47l-3.93-.714c-1.25 6.842-2.49 13.669-3.72 20.47l3.94.714Zm-.83 1.33.28-.278-2.84-2.819-.28.278 2.84 2.819Zm-.38.377c.14-.131.27-.269.38-.377l-2.84-2.818c-.15.155-.2.208-.27.27l2.73 2.925Zm-1.03.705c.42-.188.81-.461 1.13-.804l-2.93-2.727a.49.49 0 0 1 .18-.128l1.62 3.659Zm-2.42.508c.76-.056 1.5-.201 2.22-.434l-1.23-3.807c-.41.135-.84.219-1.28.251l.29 3.99Zm-359.1.005h358.96v-4h-358.96v4Zm-3.29-.414c1.04.193 2.09.33 3.15.408l.29-3.989a24.8 24.8 0 0 1-2.71-.352l-.73 3.933Zm-5.14-19.643c1.13 6.03 2.34 12.058 3.55 18.07l3.92-.786c-1.21-6.016-2.41-12.019-3.53-18.02l-3.94.736Zm-5.48-28.907 5.49 28.911 3.93-.745-5.49-28.911-3.93.745Zm-13.791-73.22c4.577 24.406 9.181 48.813 13.791 73.219l3.93-.743c-4.61-24.405-9.21-48.809-13.79-73.214l-3.931.738Zm-3.502-5.187c1.944 1.768 3.1 3.033 3.501 5.185l3.932-.733c-.659-3.54-2.719-5.571-4.74-7.41l-2.693 2.958Zm-11.323-37.451c-3.591 14.45.178 27.288 11.322 37.449l2.695-2.955c-10.047-9.162-13.375-20.491-10.135-33.529l-3.882-.965Zm34.896-26.535c-16.286-.044-30.942 10.655-34.896 26.534l3.882.967c3.481-13.98 16.434-23.54 30.994-23.501l.02-4Zm35.16 26.268c-4.01-15.601-18.92-26.224-35.16-26.268l-.02 4c14.6.04 27.8 9.593 31.3 23.262l3.88-.994Zm5.48 4.942c-1.84-.278-2.9-.7-3.62-1.32-.71-.606-1.35-1.62-1.86-3.621l-3.88.992c.62 2.425 1.56 4.323 3.14 5.67 1.56 1.335 3.5 1.912 5.62 2.234l.6-3.955Zm9.56 1.949c-3.16-.727-6.33-1.46-9.56-1.949l-.6 3.955c3.05.462 6.08 1.159 9.26 1.892l.9-3.898Zm4.13.933c-1.39-.3-2.76-.616-4.13-.933l-.9 3.898c1.37.316 2.76.638 4.18.944l.85-3.909Zm-2.61-1.886c.67.394.74.677.76.887.06.421-.05 1.096-.47 2.305l3.79 1.297c.42-1.234.83-2.689.65-4.113-.21-1.635-1.15-2.913-2.7-3.825l-2.03 3.449Zm-.81-.468.83.478 1.99-3.468-.83-.479-1.99 3.469Zm-1.28-.742c.37.222.74.436 1.1.639l1.98-3.473c-.36-.206-.7-.401-1.03-.6l-2.05 3.434Zm-11.04-57.176c-5.59 7.722-8.44 18.589-7.12 29.208 1.33 10.677 6.88 21.179 18.15 27.964l2.06-3.426c-10.09-6.081-15.04-15.429-16.24-25.032-1.2-9.659 1.42-19.502 6.39-26.367l-3.24-2.347Zm38.88-15.411c-7.94-1.574-15.28-1.055-21.87 1.571-6.58 2.625-12.27 7.303-17.01 13.839l3.24 2.348c4.37-6.029 9.49-10.172 15.25-12.472 5.77-2.299 12.31-2.809 19.62-1.363l.77-3.923Zm31.56 30.004c-2.13-8.058-5.83-14.753-11.15-19.853-5.31-5.102-12.15-8.514-20.41-10.151l-.78 3.923c7.62 1.51 13.73 4.609 18.42 9.115 4.7 4.508 8.08 10.517 10.06 17.99l3.86-1.024Zm1.35 9.311c-.26-3.095-.53-6.256-1.35-9.316l-3.86 1.034c.71 2.661.96 5.463 1.23 8.625l3.98-.343Zm0-.017v-.006l-3.98.388v.006l3.98-.388Zm.44 4.474c-.18-1.501-.31-2.972-.43-4.451l-3.99.342c.13 1.47.26 3.01.45 4.591l3.97-.482Zm14.01 9.308-14.82-10.689-2.34 3.244 14.82 10.689 2.34-3.244Zm3.45-9.132c-2.06 3.169-4.16 6.383-6.3 9.662l3.36 2.184c2.13-3.278 4.23-6.492 6.29-9.661l-3.35-2.185Zm232.62 170.857h-348.24v4h348.24v-4Zm-1.44-.444c-.16.627-.33 1.283-.5 1.965l3.88.959c.16-.65.33-1.281.49-1.911l-3.87-1.013Zm.93-3.931c-.23 1.27-.56 2.523-.93 3.932l3.87 1.012c.36-1.385.73-2.78.99-4.22l-3.93-.724Zm3.58-19.316c-1.2 6.438-2.39 12.876-3.58 19.314l3.93.727c1.19-6.437 2.39-12.875 3.58-19.313l-3.93-.728Zm15.74-85.844c-5.15 28.63-10.45 57.233-15.74 85.844l3.93.728c5.3-28.609 10.6-57.222 15.75-85.864l-3.94-.708Zm7.28-9.94c-2.32 1.043-4 2.354-5.18 4.108-1.15 1.715-1.71 3.689-2.1 5.832l3.94.708c.35-1.941.79-3.275 1.48-4.31.67-.996 1.69-1.877 3.5-2.689l-1.64-3.649Zm9.6-9a20.26 20.26 0 0 1-9.6 9l1.64 3.649a24.178 24.178 0 0 0 11.49-10.782l-3.53-1.867Zm2.01-12.989c.8 4.434.09 9.004-2.01 12.988l3.53 1.869a24.144 24.144 0 0 0 2.42-15.564l-3.94.707Zm-21.84-18.059c11.05-.023 19.85 7.271 21.85 18.068l3.93-.726c-2.35-12.71-12.82-21.369-25.79-21.342l.01 4Zm-21.75 18.734c1.31-10.806 10.68-18.711 21.75-18.734l-.01-4c-12.96.027-24.14 9.312-25.72 22.251l3.98.483Zm-7.39 8.586c2.14-.572 3.94-1.423 5.24-2.94 1.3-1.512 1.88-3.427 2.15-5.647l-3.98-.481c-.22 1.858-.65 2.869-1.21 3.525-.55.65-1.47 1.208-3.23 1.678l1.03 3.865Zm-19.04 5.55c6.36-1.931 12.67-3.851 19.04-5.55l-1.03-3.865c-6.45 1.72-12.83 3.66-19.17 5.588l1.16 3.827Zm.03-.009-1.22-3.808 1.22 3.808Zm-.19.059.16-.049-1.16-3.828-.17.05 1.17 3.827Zm0 .001v-.002l-1.17-3.825v.001l1.17 3.826Zm-9.59 2.883c3.2-.944 6.4-1.915 9.58-2.883l-1.16-3.827c-3.19.969-6.37 1.935-9.55 2.873l1.13 3.837Zm-2 .411c.63-.11 1.26-.236 1.88-.38l-.9-3.898c-.55.127-1.11.239-1.67.338l.69 3.94Zm-2.43.344c.81-.088 1.63-.203 2.43-.344l-.69-3.94c-.72.126-1.44.228-2.17.307l.43 3.977Zm-2.22-24.844v22.856h4v-22.856h-4Zm18.36-35.868c2.39 7.326 2.03 13.87-.77 19.5-2.82 5.664-8.25 10.645-16.45 14.563l1.73 3.609c8.74-4.177 14.97-9.701 18.3-16.388 3.35-6.721 3.65-14.372.99-22.523l-3.8 1.239Zm-29.24-18.044c12.4-2.255 25.16 5.518 29.24 18.044l3.8-1.239c-4.66-14.339-19.3-23.371-33.75-20.74l.71 3.935Zm-16.89 10.132a26.584 26.584 0 0 1 16.86-10.126l-.65-3.947a30.56 30.56 0 0 0-19.39 11.649l3.18 2.424Zm-4.53 24.623c-1.96-9.104-1.1-17.355 4.52-24.61l-3.16-2.45c-6.55 8.455-7.4 18.02-5.27 27.901l3.91-.841Zm-30.96 22.302 30.12-20.221-2.23-3.321-30.12 20.221 2.23 3.321Zm-39.9-58.139 37.1 57.562 3.36-2.167-37.1-57.562-3.36 2.167Zm.13-50.048c6.94 6.554 10.33 13.892 10.37 21.761.04 7.922-3.3 16.674-10.41 25.99l3.18 2.426c7.45-9.758 11.28-19.352 11.23-28.438-.05-9.141-4.03-17.475-11.63-24.648l-2.74 2.909Zm-42.19-.538c12.85-11.023 30.23-10.762 42.18.537l2.75-2.907c-13.49-12.759-33.19-12.971-47.53-.666l2.6 3.036Zm-1.2 47.724c-6.74-9.725-9.8-18.763-9.54-26.738.25-7.913 3.78-15.026 10.74-20.985l-2.6-3.038c-7.71 6.601-11.85 14.73-12.14 23.894-.3 9.101 3.2 18.974 10.25 29.146l3.29-2.279Zm-37.92 60.379 37.95-58.147-3.35-2.186-37.95 58.147 3.35 2.186Zm-31.32-19.956 28.48 20.486 2.33-3.247-28.47-20.486-2.34 3.247Zm-.5-3.754c-.1.57-.2 1.173-.3 1.815l3.95.631c.1-.62.19-1.205.29-1.776l-3.94-.67Zm.48-3.124c-.12.99-.29 1.983-.48 3.124l3.94.669c.19-1.123.38-2.208.51-3.306l-3.97-.487Zm-36.61-27.925c18.65-7.623 38.9 7.781 36.61 27.942l3.97.453c2.64-23.146-20.59-40.884-42.09-32.098l1.51 3.703Zm-10.17 40.221c-11.39-12.754-6.12-33.561 10.17-40.222l-1.51-3.702c-18.66 7.63-25 31.625-11.64 46.588l2.98-2.664Zm7.23 5.529c-2.89-1.843-5.37-3.443-7.23-5.529l-2.98 2.664c2.29 2.57 5.27 4.457 8.06 6.237l2.15-3.372Zm-.06-.035v-.001l-2.03 3.444 2.03-3.443Zm.09.055-.03-.02-2.15 3.373.03.019 2.15-3.372Zm0-.004-.01-.001-2.13 3.382v.001l2.14-3.382Zm-.01-.004v-.001l-2.12 3.392v.001l2.12-3.392Zm-.01-.007-2.1 3.406v.001l2.1-3.407Zm4.14 2.75c-1.38-.988-2.78-1.884-4.11-2.733l-2.15 3.373c1.34.858 2.66 1.697 3.94 2.612l2.32-3.252Zm.84 24.421v-22.795h-4v22.795h4Zm-6.79 1.546c1.56.232 3.13.385 4.7.452l.18-3.996a40.97 40.97 0 0 1-4.29-.412l-.59 3.956Zm-9.37-2.001c3.08.667 6.17 1.328 9.25 1.98l.83-3.914c-3.08-.65-6.16-1.31-9.23-1.975l-.85 3.909Zm-14.26-3.139c4.75 1.064 9.5 2.109 14.26 3.139l.85-3.909c-4.76-1.029-9.5-2.072-14.24-3.133l-.87 3.903Zm-8.36-8.862c.24 1.431.45 2.651.71 3.62.27.993.66 1.95 1.41 2.748.75.8 1.68 1.249 2.66 1.58.95.321 2.16.594 3.57.913l.88-3.902c-1.49-.335-2.46-.561-3.17-.801-.69-.233-.92-.411-1.02-.523-.11-.116-.27-.357-.47-1.07-.2-.737-.37-1.73-.63-3.24l-3.94.675Zm-.02-.102.02.102 3.94-.675-.02-.102-3.94.675Zm-15.58-18.578c8.79 3.177 14 9.316 15.58 18.577l3.94-.673c-1.83-10.697-8.04-18.005-18.16-21.665l-1.36 3.761ZM995.036 611.7c5.164-10.102 17.114-14.954 27.734-11.097l1.37-3.76c-12.57-4.563-26.604 1.185-32.666 13.036l3.562 1.821Zm7.894 27.091c-5.152-3.305-8.364-7.604-9.687-12.24-1.322-4.632-.807-9.767 1.793-14.851l-3.562-1.821c-3.014 5.893-3.704 12.069-2.077 17.77 1.625 5.696 5.516 10.751 11.363 14.508l2.17-3.366Zm3.13 2.898a9.594 9.594 0 0 0-3.24-2.959l-1.95 3.487a5.678 5.678 0 0 1 1.9 1.736l3.29-2.264Zm1.14 2.228a9.456 9.456 0 0 0-1.14-2.228l-3.29 2.263c.28.407.5.845.66 1.306l3.77-1.341Zm.46 1.857a9.868 9.868 0 0 0-.46-1.859l-3.77 1.344c.13.351.22.717.27 1.09l3.96-.575Zm12.75 66.276c-4.29-22.119-8.57-44.23-12.76-66.361l-3.93.744c4.19 22.141 8.48 44.26 12.77 66.379l3.92-.762Zm2.8 14.444-2.8-14.444-3.92.761 2.79 14.444 3.93-.761Zm3.47 17.809c-1.16-5.98-2.32-11.891-3.47-17.81l-3.93.763c1.16 5.921 2.31 11.834 3.48 17.813l3.92-.766Zm-.01-.065v-.002l-3.9.9v.001l3.9-.899Zm.02.092v-.001l-3.94.716v.001l3.94-.716Zm348.28-116.635-60 17.364 1.11 3.842 60-17.364-1.11-3.842Zm-.61-3.201c-.26 1.542-.52 3.119-.81 4.783l3.95.678c.28-1.676.55-3.263.81-4.803l-3.95-.658Zm0-.022v.021l3.95.661v-.02l-3.95-.662Zm.84-4.973c-.28 1.653-.56 3.293-.84 4.975l3.95.658c.28-1.684.55-3.311.84-4.948l-3.95-.685Zm16.62-15.03c-8.52.041-15.07 6.204-16.61 15.029l3.94.687c1.25-7.186 6.36-11.685 12.69-11.716l-.02-4Zm16.7 14.421c-1.49-8.004-8.8-14.461-16.7-14.421l.02 4c5.8-.03 11.58 4.881 12.75 11.154l3.93-.733Zm-11.66 19.947c8.63-2.007 13.21-11.631 11.66-19.946l-3.93.732c1.26 6.773-2.61 13.916-8.63 15.318l.9 3.896Zm-5.88 6.878c.42-2.195.9-3.607 1.68-4.611.73-.935 1.91-1.735 4.2-2.267l-.9-3.897c-2.9.671-5 1.84-6.45 3.702-1.4 1.795-2.02 4.01-2.46 6.334l3.93.739Zm-13.97 73.566c4.7-24.514 9.4-49.033 13.97-73.569l-3.93-.734c-4.57 24.525-9.27 49.034-13.97 73.55l3.93.753Zm-.04.188.04-.187-3.93-.754-.04.186 3.93.755Zm-4.41 23.051c1.46-7.684 2.94-15.368 4.41-23.052l-3.93-.753-4.41 23.054 3.93.751Zm-1.07 5.069c.38-1.726.74-3.392 1.07-5.069l-3.93-.752c-.31 1.614-.67 3.227-1.05 4.962l3.91.859Zm-.48 2.2.48-2.203-3.91-.853-.48 2.203 3.91.853Zm-334.82 1.574h332.86v-4h-332.86v4Zm-25.41-114.265 23.45 112.672 3.92-.815-23.45-112.672-3.92.815Zm-11.746-23.135c-2.382 4.908-2.496 9.773-.134 14.141 2.31 4.267 6.81 7.761 13.06 10.426l1.57-3.679c-5.81-2.478-9.4-5.487-11.11-8.649-1.66-3.06-1.7-6.551.21-10.492l-3.596-1.747Zm4.016-5.255a16.66 16.66 0 0 0-4.015 5.252l3.595 1.753a12.761 12.761 0 0 1 3.05-3.998l-2.63-3.007Zm1.96-1.484c-.69.445-1.34.94-1.96 1.483l2.63 3.009c.47-.414.98-.791 1.5-1.132l-2.17-3.36Zm3.76-1.811a16.923 16.923 0 0 0-3.76 1.811l2.17 3.36c.89-.576 1.86-1.04 2.87-1.379l-1.28-3.792Zm3.18-.733c-1.08.14-2.14.384-3.18.733l1.28 3.791c.79-.265 1.6-.45 2.42-.557l-.52-3.967Zm3.39-.095a16.896 16.896 0 0 0-3.39.095l.51 3.967c.86-.11 1.72-.135 2.58-.072l.3-3.99Zm6.37 1.766a16.883 16.883 0 0 0-6.37-1.766l-.29 3.99c1.69.123 3.34.58 4.85 1.345l1.81-3.569Zm5.16 26.216c2.96-5.63 4.13-10.923 3.26-15.519-.89-4.684-3.83-8.342-8.42-10.692l-1.82 3.56c3.63 1.861 5.68 4.558 6.31 7.875.64 3.403-.16 7.755-2.87 12.916l3.54 1.86Zm56.43 11.123-57.73-13.997-.94 3.888 57.73 13.996.94-3.887Zm-2.03-39.697c.51 3.094.73 12.223.65 21.355-.04 4.522-.15 8.973-.33 12.576-.19 3.706-.44 6.263-.69 7.184l3.86 1.051c.39-1.426.64-4.462.82-8.034.19-3.674.3-8.184.34-12.742.08-9.029-.13-18.537-.71-22.042l-3.94.652Zm-16.68-27.081c-2.12 6.427-1.5 12.49 1.75 17.556 3.21 5.011 8.84 8.802 16.31 11.11l1.18-3.822c-6.88-2.125-11.58-5.468-14.13-9.447-2.51-3.926-3.1-8.712-1.31-14.147l-3.8-1.25Zm10.45-12.344c-4.96 2.6-8.71 7.03-10.45 12.346l3.8 1.246a17.514 17.514 0 0 1 8.51-10.05l-1.86-3.542Zm16.11-1.58a21.536 21.536 0 0 0-16.11 1.58l1.86 3.542a17.542 17.542 0 0 1 13.12-1.286l1.13-3.836Zm12.53 32.907c2.59-8.297 2.95-15.47.83-21.167-2.15-5.802-6.76-9.747-13.35-11.736l-1.16 3.829c5.61 1.692 9.12 4.865 10.76 9.3 1.69 4.541 1.55 10.724-.89 18.585l3.81 1.189Zm41.39 28.086-42.13-30.304-2.33 3.247 42.12 30.304 2.34-3.247Zm45.21-73.159-48.06 73.69 3.36 2.185 48.05-73.69-3.35-2.185Zm-6.66-39.432c-5.72 6.111-7.96 13.467-6.66 20.965 1.29 7.439 6.01 14.781 13.73 21.107l2.54-3.095c-7.21-5.898-11.25-12.451-12.33-18.694-1.07-6.183.72-12.293 5.64-17.55l-2.92-2.733Zm8.67-6.205a26.526 26.526 0 0 0-8.68 6.214l2.94 2.716a22.452 22.452 0 0 1 7.37-5.275l-1.63-3.655Zm10.43-2.292c-3.6.05-7.15.829-10.43 2.293l1.63 3.653a22.483 22.483 0 0 1 8.85-1.946l-.05-4Zm10.48 2.001a26.575 26.575 0 0 0-10.48-2.001l.05 4c3.05-.042 6.09.537 8.91 1.699l1.52-3.698Zm3.32 1.649a25.772 25.772 0 0 0-3.32-1.649l-1.52 3.698c.97.401 1.91.869 2.82 1.399l2.02-3.448Zm5.53 4.32a26.62 26.62 0 0 0-5.53-4.321l-2.02 3.45a22.68 22.68 0 0 1 4.69 3.669l2.86-2.798Zm7.08 23.315c1.42-8.73-.66-16.758-7.08-23.315l-2.86 2.798c5.44 5.557 7.23 12.267 5.99 19.874l3.95.643Zm-15.11 19.613c7.94-4.441 13.65-10.661 15.11-19.613l-3.95-.643c-1.2 7.385-5.87 12.713-13.11 16.766l1.95 3.49Zm47.93 70.556-47.22-73.383-3.36 2.164 47.22 73.383 3.36-2.164Zm41.63-30.513-44.43 29.937 2.24 3.317 44.43-29.937-2.24-3.317Zm-1.71.388c.32.664.66 1.357 1.02 2.122l3.62-1.703c-.37-.794-.72-1.512-1.05-2.174l-3.59 1.755Zm-.01-.017.01.008 3.6-1.737-.01-.008-3.6 1.737Zm-.03-.067.04.076 3.59-1.756-.04-.076-3.59 1.756Zm-1.46-3.154c.44 1.057.93 2.078 1.46 3.152l3.59-1.751c-.52-1.085-.97-2.003-1.35-2.933l-3.7 1.532Zm-1.06-12.42c-.9 4.147-.53 8.468 1.06 12.403l3.7-1.498a17.207 17.207 0 0 1-.85-10.056l-3.91-.849Zm6.1-10.85a21.2 21.2 0 0 0-6.1 10.85l3.91.849a17.133 17.133 0 0 1 4.95-8.799l-2.76-2.9Zm21.62-4.229c-3.9-1.466-7.74-1.89-11.43-1.176-3.69.714-7.1 2.544-10.17 5.388l2.72 2.934c2.61-2.412 5.36-3.842 8.21-4.395 2.86-.553 5.95-.253 9.26.993l1.41-3.744Zm12.59 19.568c.05-8.618-4.87-16.656-12.59-19.567l-1.41 3.743c5.94 2.238 10.04 8.612 10 15.8l4 .024Zm-6.11 13.065c3.54-3.431 6.07-7.678 6.11-13.064l-4-.026c-.03 3.998-1.86 7.281-4.89 10.215l2.78 2.875Zm-17.5 9.146c6.79-1.525 12.62-4.43 17.5-9.146l-2.78-2.876c-4.28 4.138-9.43 6.733-15.6 8.119l.88 3.903Zm1.52 41.718.04-43.668-4-.004-.04 43.668 4 .004ZM612.817 1114.28l-36.287 1.24.137 4 36.286-1.24-.136-4Zm-1.932-95.94v97.94h4v-97.94h-4Zm-35.118 2h37.118v-4h-37.118v4Zm-3.059-73.387 1.059 71.417 3.999-.06-1.059-71.416-3.999.059Zm-.6-49.95c-.181 14.565-.224 34.267.602 50.026l3.995-.21c-.819-15.62-.778-35.212-.598-49.767l-3.999-.049Zm1.1-42.758c-.37 13.29-1.028 36.914-1.1 42.758l3.999.049c.072-5.803.729-29.379 1.1-42.695l-3.999-.112Zm.245-8.917c-.024.998-.118 4.346-.245 8.917l3.999.112c.127-4.565.22-7.924.245-8.932l-3.999-.097Zm1.145-47.274-1.145 47.274 3.999.097 1.144-47.274-3.998-.097Zm364.795-6.234-362.82 4.283.048 4 362.819-4.283-.047-4Zm.313 0h-.289v4h.289v-4Zm84.284 16.771c-30.345-11.499-61.256-16.771-84.284-16.771v4c22.501 0 52.933 5.169 82.874 16.512l1.41-3.741Zm-2.7-11.83v13.7h4v-13.7h-4Zm360.83-2h-358.83v4h358.83v-4Zm2 35.934v-33.934h-4v33.934h4Zm138.33-42.295c-42.07.454-93.89 13.23-141.33 40.562l2 3.466c46.86-26.996 98.01-39.581 139.37-40.028l-.04-4Zm82.99 4.707c-30.27-4.736-61.55-5.819-83.07-4.704l.2 3.995c21.25-1.102 52.26-.031 82.25 4.661l.62-3.952Zm35.73 7.637c-12.21-3.431-24.44-5.87-35.73-7.637l-.62 3.952c11.18 1.749 23.25 4.158 35.27 7.536l1.08-3.851Zm3.1-8.867-5.39 9.831 3.5 1.923 5.39-9.831-3.5-1.923Zm181-1.038h-179.25v4h179.25v-4Zm2 181.91v-179.91h-4v179.91h4Zm36.73-2h-38.73v4H1864v-4Zm2 200.401V972.749h-4v198.401h4Zm-40.37 9.01 38.73-7.04-.72-3.94-38.72 7.04.71 3.94Zm1.64 145.05v-147.02h-4v147.02h4Zm-212.67 2h210.67v-4H1614.6v4Zm-1.99-2.1v.04l3.99.13.01-.04-4-.13Zm-87.84 12.89c34.45 0 64.14-4.49 90.31-10.88l-.95-3.89c-25.9 6.33-55.27 10.77-89.36 10.77v4Zm-143.62-39.08c53.05 29.41 108.88 39.08 143.62 39.08v-4c-34.14 0-89.29-9.54-141.68-38.57l-1.94 3.49Zm2.97 31.2v-32.95h-4v32.95h4Zm-360.83 2h358.83v-4h-358.83v4Zm-2-20.39v18.39h4v-18.39h-4Zm-86.009 17.42c23.458-.55 55.849-4.6 88.639-15.52l-1.27-3.79c-32.347 10.77-64.335 14.77-87.463 15.32l.094 3.99Zm-.575.02.575-.02-.095-3.99-.574.01.094 4Zm-360.657.01 360.61-.01v-4l-360.61.01v4Zm.549-211.69-2.549 209.66 4 .05 2.549-209.66-4-.05Zm85.308 29.25v.12h4v-.11l-4-.01Zm0-163.206v163.206h4V983.534h-4Zm-10.745-12.217c1.309 0 4.022.23 6.357 1.804 2.194 1.478 4.388 4.367 4.388 10.413h4c0-7.191-2.709-11.41-6.153-13.731-3.302-2.225-6.962-2.486-8.592-2.486v4Zm-25.095 0h25.095v-4h-25.095v4Zm-2.356-26.047.357 24.077 3.999-.059-.357-24.078-3.999.06Zm-.585-47.661c-.183 14.787-.198 33.608.587 47.742l3.994-.222c-.777-13.988-.764-32.691-.581-47.471l-4-.049Zm1.046-40.564c-.375 13.454-.979 35.145-1.046 40.564l4 .049c.066-5.378.669-27.02 1.045-40.502l-3.999-.111Zm0-.003v.001l3.999.115v-.001l-3.999-.115Zm.289-10.528c-.032 1.33-.143 5.31-.289 10.53l3.999.111c.145-5.213.256-9.205.289-10.544l-3.999-.097Zm317.223-5.672-315.247 3.721.047 4 315.247-3.722-.047-3.999Zm84.487 21.19c-29.886-14.722-63.246-21.19-84.464-21.19v4c20.596 0 53.352 6.323 82.694 20.779l1.77-3.589Zm5.8 2.989a174.28 174.28 0 0 0-5.8-2.989l-1.77 3.589c1.91.94 3.8 1.914 5.68 2.922l1.89-3.522Zm43.92 35.997c-12.17-15.746-28.25-27.562-43.92-35.997l-1.89 3.522c15.33 8.254 30.91 19.741 42.64 34.921l3.17-2.446Zm-3.58-55.235v56.458h4v-56.458h-4Zm262.79-2h-260.79v4h260.79v-4Zm2 96.054v-94.054h-4v94.054h4Zm44.97-51.526c-18.13 13.695-34.85 30.435-48.62 50.39l3.3 2.272c13.5-19.569 29.91-36.006 47.73-49.471l-2.41-3.191Zm.85-.64c-.28.213-.57.426-.85.64l2.41 3.191c.28-.21.56-.42.84-.628l-2.4-3.203Zm143.06-50.26c-41.02.196-96.76 15.605-143.06 50.26l2.4 3.203c45.59-34.126 100.49-49.271 140.68-49.463l-.02-4Zm73.88 4.128c-27.41-4.288-55.86-5.156-73.98-4.124l.23 3.993c17.84-1.015 46.01-.161 73.13 4.083l.62-3.952Zm41.45 10.001c-13.05-4.632-27.5-7.818-41.45-10.001l-.62 3.952c13.8 2.16 27.99 5.297 40.73 9.818l1.34-3.769Zm5.26 2.098c-1.91-.795-3.73-1.555-5.26-2.098l-1.34 3.769c1.4.5 3.12 1.212 5.06 2.021l1.54-3.692Zm.01.007v-.001l-1.56 3.681v.001l1.56-3.681Zm-.01-.005-1.54 3.692v.001l1.54-3.693Zm.02.007-.01-.002-1.56 3.684.01.002 1.56-3.684Zm20.05 3.041c-.43.897-1.13 1.419-2.24 1.674-1.21.276-2.84.209-4.85-.192-4.01-.801-8.74-2.764-12.97-4.528l-1.54 3.693c4.13 1.719 9.25 3.863 13.73 4.758 2.24.447 4.52.627 6.52.168 2.1-.48 3.92-1.674 4.96-3.854l-3.61-1.719Zm8.65-15.789-8.6 15.687 3.51 1.923 8.6-15.687-3.51-1.923Zm102.96-1.039h-101.2v4h101.2v-4Zm2 181.91V841.86h-4v179.91h4Zm36.73-2h-38.73v4h38.73v-4Zm2 110.47v-108.47h-4v108.47h4Zm-24.55 2.98c8.61 0 14.3-.25 17.85-.5 1.77-.12 3.01-.25 3.82-.34.41-.05.71-.09.91-.12.1-.02.17-.03.23-.04.03 0 .05-.01.06-.01h.03v-.01h.01l-.36-1.96-.36-1.97h.01-.04c-.03.01-.09.02-.17.03-.16.02-.42.06-.79.1-.74.09-1.91.21-3.63.33-3.44.24-9.03.49-17.57.49v4Zm-16.18 15.03 2-.12v.01-.02c0-.03 0-.06-.01-.11v-.47c.01-.41.03-1.01.11-1.73.17-1.47.54-3.38 1.38-5.26.84-1.88 2.11-3.68 4.07-5.02 1.94-1.34 4.68-2.31 8.63-2.31v-4c-4.64 0-8.2 1.15-10.9 3.01-2.69 1.85-4.39 4.3-5.45 6.69-1.06 2.37-1.51 4.72-1.7 6.45-.1.87-.13 1.6-.14 2.12 0 .26 0 .47.01.61V1148.35s0 .01.01.01l1.99-.11Zm2 127.94v-127.94h-4v127.94h4Zm-113.09 2h111.09v-4h-111.09v4Zm-1.42-20.92-.58 18.86 4 .12.58-18.86-4-.12Zm2.08 2.15c.19-.07.37-.13.55-.19l-1.27-3.79c-.19.06-.4.13-.6.2l1.32 3.78Zm-1.07.38c.37-.13.72-.26 1.07-.38l-1.32-3.78c-.37.13-.75.27-1.14.41l1.39 3.75Zm-48.03 16.18c17.05-4.83 32.82-10.52 48.03-16.18l-1.39-3.75c-15.19 5.65-30.84 11.3-47.73 16.09l1.09 3.84Zm-91.95 13c35.65 0 65.35-5.45 91.95-13l-1.09-3.84c-26.31 7.46-55.65 12.84-90.86 12.84v4ZM1388 1245.75c49.3 32.91 105.56 43.23 136.77 43.23v-4c-30.55 0-86.01-10.16-134.55-42.56l-2.22 3.33Zm-7.05-4.9c2.33 1.68 4.68 3.31 7.05 4.9l2.22-3.33c-2.33-1.55-4.64-3.16-6.93-4.81l-2.34 3.24Zm-49.5-50.18c14.06 20.33 31.14 36.9 49.5 50.18l2.34-3.24c-18.03-13.05-34.77-29.3-48.55-49.22l-3.29 2.28Zm3.65 90.43v-91.57h-4v91.57h4Zm-262.79 2h260.79v-4h-260.79v4Zm-2-55.27v53.27h4v-53.27h-4Zm-32.96 27.24c12.87-6.62 25.48-15.13 36.36-25.81l-2.8-2.86c-10.54 10.36-22.8 18.64-35.39 25.11l1.83 3.56Zm-13.29 6.18c4.49-1.89 8.94-3.94 13.29-6.18l-1.83-3.56c-4.26 2.19-8.61 4.2-13.01 6.06l1.55 3.68Zm-89.931 18.9c23.772-.56 58.128-5.52 89.931-18.9l-1.55-3.68c-31.242 13.14-65.082 18.03-88.475 18.58l.094 4Zm-310.459 0h310.412v-4H623.67v4Zm-.623-115.26-1.377 113.24 4 .05 1.377-113.24-4-.05Zm28.128-2.87-26.197.89.137 4 26.196-.89-.136-4Zm8.731-15.17c-.017 3.86-.923 7.65-2.533 10.48-1.607 2.83-3.766 4.48-6.298 4.7l.336 3.98c4.27-.36 7.424-3.15 9.439-6.7 2.013-3.54 3.037-8.04 3.056-12.44l-4-.02Zm1156.374 1.75c1.11 6.08 1.99 10.93 2.69 14.81l3.94-.71c-.71-3.88-1.59-8.73-2.69-14.81l-3.94.71Zm6.63 14.09-2.69-14.8-3.94.71 2.7 14.81 3.93-.72Zm-.25 1.39-3.43-2.06-.01.01 3.44 2.05Zm-500.33-101.63c0-70.87 32.6-119.823 74.02-151.118 41.5-31.351 91.81-44.943 126.93-44.943v-4c-35.96 0-87.13 13.861-129.34 45.752-42.28 31.947-75.61 82.024-75.61 154.309h4ZM1523.28 1259c-26.39 0-76.73-9.11-120.4-38.27-43.57-29.09-80.55-78.13-80.55-158.28h-4c0 81.63 37.77 131.86 82.32 161.61 44.45 29.67 95.59 38.94 122.63 38.94v-4Zm129.7-27.33c-38.18 14.2-76.64 27.33-129.7 27.33v4c53.8 0 92.81-13.34 131.1-27.58l-1.4-3.75Zm38.97 18.61c.18-5.61-1.35-13.37-7.36-18.18-6.11-4.9-16.12-6.19-31.61-.43l1.4 3.75c14.91-5.54 23.2-3.81 27.71-.2 4.61 3.69 6.02 9.92 5.87 14.93l3.99.13Zm57.32-2.07h-59.31v4h59.31v-4Zm-2-107.32v109.32h4v-109.32h-4Zm40.96-40.72c-6.81-.77-17.01.32-25.57 6.21-8.68 5.98-15.39 16.68-15.39 34.51h4c0-16.69 6.2-26.08 13.66-31.21 7.57-5.22 16.74-6.23 22.84-5.53l.46-3.98Zm-2.23-53.41v55.4h4v-55.4h-4Zm-214.68 2H1788v-4h-216.68v4Zm2 54.87v-56.87h-4v56.87h4Zm37.77 29.77c.09-6.39.26-13.93-5-20.06-5.25-6.09-15.44-10.32-34.62-11.71l-.29 3.99c18.94 1.37 27.72 5.5 31.87 10.33 4.13 4.8 4.13 10.75 4.04 17.4l4 .05Zm-.02 2.59c0-.85.01-1.71.02-2.59l-4-.05c-.01.87-.02 1.76-.02 2.64h4Zm-53.1 39.74c9.86.59 23.01-1.45 33.76-7.52 10.84-6.13 19.34-16.45 19.34-32.22h-4c0 14.03-7.44 23.15-17.31 28.73-9.96 5.63-22.3 7.57-31.56 7.02l-.23 3.99Zm-64.67-62.25c2.79 9.94 8.3 24.81 18.41 37.54 10.15 12.77 24.97 23.44 46.26 24.71l.23-3.99c-19.89-1.19-33.74-11.11-43.36-23.21-9.64-12.15-14.97-26.45-17.69-36.13l-3.85 1.08Zm5.7-131.942c-3.41 5.898-5.59 15.636-6.96 26.992-1.39 11.45-1.99 24.85-2.09 38.28-.19 26.85 1.62 54.03 3.3 66.4l3.96-.53c-1.65-12.14-3.45-39.13-3.26-65.84.1-13.35.7-26.58 2.06-37.83 1.37-11.325 3.49-20.339 6.45-25.471l-3.46-2.001Zm59.09-41.199c-20.5 0-42.4 12.315-59.09 41.199l3.46 2.001c16.17-27.985 36.91-39.2 55.63-39.2v-4Zm73.06 50.244c-1.58-10.75-10.09-23.3-22.89-33.103-12.86-9.853-30.32-17.141-50.17-17.141v4c18.87 0 35.48 6.928 47.74 16.317 12.33 9.439 19.99 21.156 21.36 30.506l3.96-.579Zm3.44 29.967-3.44-29.906-3.97.456 3.43 29.91 3.98-.46Zm114.68-1.77H1632.6v4h116.67v-4Zm-2-151.94v153.94h4V866.84h-4Zm-58.79 2h60.79v-4h-60.79v4Zm1.25-.122.5-.901-3.49-1.954-.5.901 3.49 1.954Zm-.89 1.588c.48-.855.73-1.317.89-1.589l-3.5-1.952c-.15.272-.41.733-.88 1.588l3.49 1.953Zm-34.88 23.411c4.3 1.598 8.07 2.203 11.49 1.773 3.46-.433 6.38-1.899 9.01-4.148 2.59-2.22 4.9-5.212 7.18-8.731 2.29-3.523 4.62-7.691 7.2-12.306l-3.49-1.951c-2.6 4.649-4.86 8.69-7.06 12.08-2.2 3.392-4.27 6.015-6.44 7.87-2.13 1.827-4.34 2.897-6.89 3.217-2.59.325-5.69-.099-9.6-1.553l-1.4 3.749Zm-130.56-27.332c15.95-.972 42.7-.243 68.41 3.779 12.84 2.01 25.38 4.836 36.14 8.657 10.8 3.833 19.64 8.607 25.27 14.415l2.87-2.787c-6.26-6.449-15.77-11.479-26.8-15.398-11.08-3.931-23.87-6.805-36.86-8.839-25.99-4.067-53.03-4.809-69.27-3.82l.24 3.993ZM687.885 983.029c0-6.278-2.446-16.611-8.636-25.417-6.252-8.895-16.38-16.293-31.601-16.293v4c13.703 0 22.693 6.575 28.329 14.593 5.698 8.107 7.908 17.63 7.908 23.117h4Zm0 164.231V983.029h-4v164.231h4Zm-40.4 43.67c16.03 1.31 26.201-8.37 32.223-18.7 3.015-5.17 5.049-10.59 6.331-15.08 1.268-4.44 1.846-8.14 1.846-9.89h-4c0 1.2-.463 4.48-1.692 8.79-1.215 4.26-3.133 9.35-5.941 14.17-5.62 9.64-14.567 17.86-28.441 16.72l-.326 3.99Zm2.163 61.24v-63.24h-4v63.24h4Zm282.329-2H647.648v4h284.329v-4Zm144.083-100.95c0 38.8-23.65 63.69-53.69 79.13-30.092 15.46-66.293 21.26-90.44 21.83l.094 3.99c24.549-.57 61.391-6.44 92.176-22.27 30.82-15.84 55.86-41.86 55.86-82.68h-4Zm-66.48-91.1c17.92 9.26 34.47 17.84 46.61 31.19 12.04 13.25 19.87 31.35 19.87 59.91h4c0-29.39-8.1-48.5-20.91-62.6-12.71-13.98-29.95-22.86-47.73-32.05l-1.84 3.55Zm-.01 0h.01l1.84-3.55-.01-.01-1.84 3.56Zm-16.302-8.63c5.471 3.03 10.942 5.86 16.302 8.63l1.84-3.56c-5.37-2.77-10.79-5.57-16.207-8.57l-1.935 3.5Zm3.788-5.13c-1.241.53-2.449 1.04-3.613 1.55l1.585 3.67c1.153-.5 2.352-1.01 3.595-1.54l-1.567-3.68Zm-.011.01h-.005l1.599 3.66h.005l-1.599-3.66Zm.027-.02-.014.01 1.573 3.68.014-.01-1.573-3.68Zm66.248-84.362c0 28.181-10.24 46.492-23.52 59.132-13.37 12.72-29.91 19.78-42.724 25.23l1.566 3.68c12.758-5.43 29.948-12.72 43.918-26.01 14.05-13.37 24.76-32.722 24.76-62.032h-4Zm-124.97-90.167c17.814 0 49.23 6.172 76.14 20.658 26.91 14.486 48.83 36.99 48.83 69.509h4c0-34.646-23.43-58.225-50.93-73.031-27.509-14.806-59.578-21.136-78.04-21.136v4Zm-290.678 3.432 290.702-3.432-.048-4-290.702 3.432.048 4Zm1.973 69.955c-.725-13.056-.726-31.014-.544-45.744a1610.935 1610.935 0 0 1 .486-24.135l.044-1.495a84.9 84.9 0 0 1 .015-.485l.001-.025v-.007l-1.999-.064-1.999-.063v.008l-.001.025a89.337 89.337 0 0 0-.015.49l-.044 1.503a1590.078 1590.078 0 0 0-.488 24.198c-.182 14.738-.183 32.814.55 46.016l3.994-.222Zm175.425 9.426v51.966h4v-51.966h-4Zm12.785-10.334c-1.526 0-4.601.114-7.352 1.418-1.407.666-2.79 1.671-3.816 3.18-1.034 1.521-1.617 3.425-1.617 5.736h4c0-1.612.397-2.71.925-3.487.537-.789 1.299-1.378 2.22-1.814 1.906-.903 4.224-1.033 5.64-1.033v-4Zm54.904 0h-54.904v4h54.904v-4Zm27.492 35.336c0-14.329-5.663-23.223-11.995-28.5a32.45 32.45 0 0 0-9.147-5.357c-2.699-1.028-5.036-1.479-6.35-1.479v4c.648 0 2.477.284 4.926 1.217 2.4.914 5.264 2.403 8.01 4.692 5.434 4.529 10.556 12.303 10.556 25.427h4Zm-27.492 39.264c6.849 0 13.744-5.18 18.791-12.31 5.116-7.226 8.701-16.938 8.701-26.954h-4c0 9.105-3.278 18.021-7.966 24.644-4.758 6.72-10.609 10.62-15.526 10.62v4Zm-55.395 0h55.395v-4h-55.395v4Zm-12.294-12.3c0 2.18.086 5.33 1.806 7.91 1.844 2.77 5.179 4.39 10.488 4.39v-4c-4.495 0-6.307-1.33-7.16-2.61-.975-1.46-1.134-3.46-1.134-5.69h-4Zm-.491 97.59v61.35h4v-61.35h-4Zm13.07-11.84c-1.671 0-3.323.04-4.83.26-1.514.22-3.012.65-4.318 1.53-2.763 1.86-3.922 5.18-3.922 10.05h4c0-4.38 1.047-5.98 2.155-6.73.63-.42 1.483-.72 2.668-.89 1.193-.18 2.589-.22 4.247-.22v-4Zm55.11 0h-55.11v4h55.11v-4Zm32.884 43.68c0-11.88-5.273-22.73-11.865-30.59-3.303-3.94-6.98-7.17-10.577-9.44-3.557-2.24-7.213-3.65-10.442-3.65v4c2.164 0 5.065.99 8.31 3.03 3.204 2.02 6.575 4.97 9.645 8.63 6.153 7.34 10.929 17.31 10.929 28.02h4Zm-32.884 43.67c7.252 0 15.486-5.32 21.779-13.12 6.366-7.89 11.105-18.74 11.105-30.55h-4c0 10.75-4.33 20.74-10.219 28.04-5.962 7.39-13.171 11.63-18.665 11.63v4Zm-55.11 0h55.11v-4h-55.11v4Zm-13.07-14.16c0 2.57.098 6.15 1.872 9.07 1.912 3.15 5.443 5.09 11.198 5.09v-4c-4.788 0-6.791-1.54-7.779-3.17-1.125-1.85-1.291-4.35-1.291-6.99h-4Zm273.711-224.633v-68.145h-4v68.145h4Zm32.36 40.2c0-15.442-5.61-25.788-12.78-32.382-7.1-6.535-15.62-9.285-21.39-9.81l-.37 3.984c5.02.455 12.67 2.902 19.05 8.77 6.32 5.809 11.49 15.073 11.49 29.438h4Zm0 183.843V979.107h-4v183.843h4Zm-34.36 37.79c13.69 0 22.38-6.36 27.56-14.33 5.12-7.86 6.8-17.21 6.8-23.46h-4c0 5.68-1.56 14.22-6.15 21.28-4.52 6.94-12 12.51-24.21 12.51v4Zm2 54.38v-56.38h-4v56.38h4Zm207.82-2h-209.82v4h209.82v-4Zm-2-58.3v60.3h4v-60.3h-4Zm-45.59-37.75c0 12.93 6.67 22.92 15.9 29.61 9.19 6.66 21 10.14 31.69 10.14v-4c-9.9 0-20.88-3.25-29.34-9.38-8.42-6.11-14.25-14.99-14.25-26.37h-4Zm0-177.963v177.963h4V979.107h-4Zm47.59-42.2c-17.47 0-29.14 6.973-36.55 15.788-7.34 8.741-10.43 19.202-11.03 26.242l3.98.34c.55-6.36 3.39-15.999 10.12-24.008 6.67-7.935 17.22-14.362 33.48-14.362v-4Zm-2-66.145v68.145h4v-68.145h-4Zm-207.82 2h209.82v-4h-209.82v4ZM873 1350H574v4h299v-4Zm61.759 12.84c-22.834-9.37-45.26-12.84-61.759-12.84v4c15.996 0 37.905 3.38 60.241 12.54l1.518-3.7ZM932 1352v12.69h4V1352h-4Zm283-2H934v4h281v-4Zm2 24.15V1352h-4v22.15h4Zm71.8-21.82c-23.3.46-49.45 7.15-74.71 20.04l1.82 3.57c24.78-12.65 50.34-19.16 72.97-19.61l-.08-4Zm55.77 1.54c-21.47-2.82-42.56-2.41-55.86-1.53l.26 3.99c13.14-.87 33.96-1.27 55.08 1.5l.52-3.96Zm12.64 2.04c-4.42-.86-8.66-1.52-12.64-2.04l-.52 3.96c3.91.51 8.07 1.17 12.39 2.01l.77-3.93Zm.39-4.49-2.59 5.62 3.63 1.67 2.59-5.62-3.63-1.67Zm143.14-1.17h-141.32v4h141.32v-4Zm2 2.75v-.75h-4v.75h4Zm361.26-2h-363.26v4H1864v-4Zm2 182.5V1353h-4v180.5h4Zm-29.5 2h27.5v-4h-27.5v4Zm2 56.47v-58.47h-4v58.47h4Zm25.5-2h-27.5v4h27.5v-4Zm2 174.03v-172.03h-4V1764h4Zm-467 2h465v-4h-465v4Zm-2-10.12v8.12h4v-8.12h-4Zm-96.5 18.62c18.26 0 59.1-1.31 99.22-16.75l-1.44-3.74c-39.42 15.18-79.66 16.49-97.78 16.49v4Zm-86.39-22.79c31.15 15.5 62.95 22.79 86.39 22.79v-4c-22.73 0-53.92-7.1-84.61-22.37l-1.78 3.58ZM1217 1765v-15.08h-4V1765h4Zm-252.132 2H1215v-4H964.868v4Zm-34.544 6.69c12.247-1.22 24.024-3.44 35.12-6.78l-1.153-3.83c-10.817 3.26-22.338 5.43-34.363 6.63l.396 3.98Zm-49.851-4.2c18.542 4.19 37.663 5.41 49.85 4.2l-.395-3.98c-11.676 1.16-30.357 0-48.572-4.13l-.883 3.91Zm-26.238-8.23c9.976 4.13 19.205 6.63 26.238 8.23l.883-3.91c-6.888-1.55-15.887-4-25.591-8.02l-1.53 3.7ZM857 1765v-5.59h-4v5.59h4Zm-283 2h281v-4H574v4Zm-2-174v172h4v-172h-4Zm26.365-2H574v4h24.365v-4Zm-2-63.23V1593h4v-65.23h-4Zm-22.614-1.07 24.365 3.05.497-3.97-24.364-3.05-.498 3.97ZM572 1352v172.71h4V1352h-4Zm301 36H612v4h261v-4Zm61.916 17.05C912.341 1392.29 888.221 1388 873 1388v4c14.61 0 38.039 4.15 59.948 16.53l1.968-3.48Zm38.766 36.05c-10.475-16.28-24.497-27.99-38.766-36.05l-1.968 3.48c13.81 7.81 27.307 19.1 37.37 34.73l3.364-2.16ZM970 1390v52.18h4V1390h-4Zm207-2H972v4h205v-4Zm2 65.35V1390h-4v63.35h4Zm111.41-63.04c-35.18.36-82.29 20.45-114.98 61.8l3.14 2.49c31.98-40.46 77.97-59.94 111.88-60.29l-.04-4Zm49.22 1.23c-18.73-2.45-37.7-2.04-49.34-1.22l.28 3.99c11.48-.81 30.16-1.21 48.54 1.2l.52-3.97Zm29.65 7.04c-9.65-3.66-20.05-5.78-29.65-7.04l-.52 3.97c9.42 1.23 19.49 3.3 28.75 6.81l1.42-3.74Zm8.9 3.96a84.02 84.02 0 0 0-8.9-3.96l-1.42 3.74c2.76 1.05 5.62 2.29 8.47 3.77l1.85-3.55Zm84.56-14.29h-79v4h79v-4Zm2 2.75v-.75h-4v.75h4Zm361.26-2h-363.26v4H1826v-4Zm2 106.5V1391h-4v104.5h4Zm-26 2h24v-4h-24v4Zm-.92.03c.24-.02.54-.03.92-.03v-4c-.47 0-.88.02-1.23.05l.31 3.98Zm-.4.05c.1-.02.24-.03.4-.05l-.31-3.98c-.25.01-.46.04-.66.07l.57 3.96Zm.59 2.16c.34-1.74.71-2.79.95-3.32l-3.65-1.65c-.4.89-.85 2.25-1.22 4.21l3.92.76Zm-.78 6.44c.22-2.51.41-4.49.78-6.44l-3.92-.76c-.42 2.18-.63 4.36-.84 6.86l3.98.34Zm.01 121.32v-121.49h-4v121.49h4Zm.13 1.7c-.05-.29-.13-.83-.13-1.7h-4c0 1.1.09 1.9.2 2.46l3.93-.76Zm1.37-1.23c-1.55 0-2.39-.19-2.74-.3l-1.18 3.82c.79.24 2.04.48 3.92.48v-4Zm24 0h-24v4h24v-4Zm2 98.03v-96.03h-4V1726h4Zm-391 2h389v-4h-389v4Zm-2-42.71V1726h4v-40.71h-4Zm-41.82 34.06c16.12-7.1 32.34-17.5 45.34-32.76l-3.04-2.6c-12.52 14.7-28.19 24.77-43.92 31.7l1.62 3.66Zm-92.68 17.15c18.3 0 57.35-1.58 92.68-17.15l-1.62-3.66c-34.54 15.23-72.89 16.81-91.06 16.81v4Zm-97.17-35.61c34.18 24.99 73.87 35.61 97.17 35.61v-4c-22.4 0-61.27-10.32-94.8-34.84l-2.37 3.23Zm-27.84-25.44c8.57 9.81 18.03 18.26 27.84 25.44l2.37-3.23c-9.6-7.02-18.84-15.27-27.19-24.84l-3.02 2.63ZM1179 1727v-52.86h-4V1727h4Zm-207 2h205v-4H972v4Zm-2-7.7v5.7h4v-5.7h-4Zm-43.431 14.57c18.316-1.82 33.762-6.09 46.371-12.8l-1.88-3.53c-12.037 6.41-26.949 10.57-44.886 12.35l.395 3.98Zm-37.708-3.45c15.43 3.5 30.382 4.18 37.708 3.45l-.395-3.98c-6.815.68-21.328.05-36.43-3.37l-.883 3.9Zm-50.674-27.58c14.34 16.87 35.667 24.19 50.674 27.58l.883-3.9c-14.744-3.33-35.021-10.4-48.509-26.27l-3.048 2.59Zm-23.174-64.86c2.185 19.09 5.508 44.06 23.174 64.86l3.048-2.59c-16.8-19.78-20.061-43.61-22.248-62.72l-3.974.45ZM819 1727v-87.24h-4V1727h4Zm-207 2h205v-4H612v4Zm-2-98v96h4v-96h-4Zm24.62-2H612v4h22.62v-4Zm-.666-2.17c-.318 1.39-.737 2.51-1.118 3.27l3.568 1.8c.553-1.09 1.072-2.53 1.449-4.18l-3.899-.89Zm.411-2.83-.001.01v.01l-.002.06-.01.19c-.011.15-.029.36-.058.61-.059.5-.163 1.17-.34 1.95l3.899.89c.421-1.84.512-3.25.512-3.72h-4Zm0-128.53V1624h4v-128.53h-4Zm-.003-.17c.001.04.003.1.003.17h4c0-.12-.002-.22-.006-.31l-3.997.14Zm.688 1.47.2.12 2.222-3.32a6.88 6.88 0 0 0-.403-.26l-2.019 3.46Zm-2.222-.9c.817.23 1.638.56 2.221.9l2.021-3.45c-.963-.57-2.126-1.01-3.168-1.3l-1.074 3.85Zm-.609-.15c.104.02.319.07.609.15l1.074-3.85c-.39-.11-.695-.18-.874-.21l-.809 3.91Zm-20.468-2.56 20.624 2.59.497-3.97-20.623-2.58-.498 3.96ZM610 1390v101.18h4V1390h-4Zm198.214 222.46c1.585 2.3 3.491 6.82 5.032 14.91l3.929-.74c-1.584-8.32-3.624-13.47-5.667-16.44l-3.294 2.27Zm-1.311-1.39c.076.04.196.11.385.28.203.18.515.51.926 1.11l3.294-2.27c-1.13-1.64-2.057-2.31-2.789-2.68l-1.816 3.56Zm-3.903-.57c2.758 0 3.77.51 3.903.57l1.815-3.56c-.784-.4-2.437-1.01-5.718-1.01v4Zm-12.5 0H803v-4h-12.5v4Zm2 16.45v-18.45h-4v18.45h4Zm.5-1.95c-.897 0-1.7-.02-2.42-.04l-.16 3.99c.781.03 1.638.05 2.58.05v-4Zm22.21 0H793v4h22.21v-4Zm170.122 35.3c-1.76 11.39-5.78 21.99-14.701 30.37l2.738 2.91c9.785-9.18 14.073-20.74 15.917-32.67l-3.954-.61Zm1.138-12.38c-.171 4.17-.509 8.32-1.138 12.38l3.954.61c.657-4.25 1.005-8.55 1.181-12.83l-3.997-.16Zm.031-.81c-.009.27-.02.54-.031.81l3.997.16.032-.83-3.998-.14Zm.116-10.49c.024 3.47.01 6.98-.116 10.49l3.998.14c.129-3.59.142-7.16.118-10.66l-4 .03Zm-.055-5.21c.022 1.72.043 3.46.055 5.21l4-.03c-.012-1.76-.034-3.51-.055-5.23l-4 .05Zm0-.01v.01l4-.06-4 .05Zm-.062-7.4c0 2.42.031 4.9.062 7.4l4-.05c-.032-2.51-.062-4.96-.062-7.35h-4Zm-23.5 2h25.5v-4H963v4Zm-5.719 19.39c.603-.1 1.64-.26 2.681-.88 1.087-.64 2.012-1.66 2.751-3.2 1.412-2.94 2.287-8.09 2.287-17.31h-4c0 9.16-.902 13.51-1.893 15.58-.463.96-.895 1.32-1.179 1.49-.329.19-.675.27-1.322.38l.675 3.94Zm-.388.07c.111-.02.231-.04.388-.07l-.675-3.94c-.147.02-.323.05-.499.09l.786 3.92Zm-11.823-21.4c.143 4.73.586 9.88 2.071 13.91.749 2.03 1.81 3.91 3.359 5.3 1.592 1.42 3.598 2.23 6 2.23v-4c-1.429 0-2.483-.45-3.333-1.21-.894-.8-1.657-2.03-2.273-3.7-1.243-3.37-1.684-7.97-1.826-12.65l-3.998.12Zm-.047-2.07c.011.68.025 1.37.047 2.07l3.998-.12c-.021-.67-.035-1.34-.045-2.01l-4 .06Zm-.023-4.49c0 1.41 0 2.93.023 4.49l4-.06c-.023-1.53-.023-3.02-.023-4.43h-4Zm-1.984-17c1.263 4.93 1.984 10.54 1.984 17h4c0-6.76-.755-12.71-2.109-18l-3.875 1Zm-19.276-28.99c8.43 7.08 15.863 15.66 19.276 28.99l3.875-1c-3.691-14.41-11.772-23.66-20.58-31.05l-2.571 3.06Zm-10.631-8.13c3.58 2.61 7.18 5.24 10.631 8.13l2.571-3.06c-3.572-3-7.281-5.7-10.845-8.3l-2.357 3.23Zm-11.432-8.88c3.535 3.12 7.479 5.99 11.432 8.88l2.357-3.23c-3.983-2.91-7.772-5.68-11.143-8.65l-2.646 3Zm25.298-14.27c-6.872 3.64-15.025 7.28-24.677 10.9l1.404 3.74c9.779-3.66 18.094-7.37 25.148-11.11l-1.875-3.53Zm34.046-56.94c1.446 9.92 1.624 19.41-2.76 28.73-4.386 9.32-13.49 18.77-31.286 28.21l1.875 3.53c18.241-9.68 28.148-19.67 33.03-30.04 4.883-10.37 4.586-20.81 3.099-31.01l-3.958.58ZM873 1416c10.945 0 30.224 3.3 48.141 13.43 17.859 10.09 34.291 26.9 39.901 53.98l3.916-.82c-5.89-28.43-23.208-46.11-41.849-56.64-18.583-10.5-38.553-13.95-50.109-13.95v4Zm-237 0h237v-4H636v4Zm2 54v-56h-4v56h4Zm24.365 25.47c0-12.11-6.653-19.05-13.172-22.87-3.235-1.89-6.452-3.03-8.849-3.7a40.869 40.869 0 0 0-2.922-.69c-.357-.07-.641-.12-.84-.15-.1-.01-.178-.02-.234-.03-.028-.01-.051-.01-.067-.01h-.03c-.001 0-.002 0-.251 1.98l-.25 1.98h-.001s-.001 0 0 0h.006c.007.01.019.01.037.01.037 0 .095.01.173.03.158.02.397.06.707.12.619.12 1.516.31 2.598.61 2.171.61 5.046 1.63 7.902 3.3 5.663 3.32 11.193 9.11 11.193 19.42h4Zm0 128.53v-128.53h-4V1624h4ZM636 1657c10.679 0 17.348-6.11 21.243-13.17 3.852-6.99 5.122-15.09 5.122-19.83h-4c0 4.22-1.167 11.63-4.625 17.9-3.414 6.19-8.927 11.1-17.74 11.1v4Zm2 46v-48h-4v48h4Zm155-2H636v4h157v-4Zm-2-50v52h4v-52h-4Zm-26.5-21.72c0 9.56 2.905 15.74 8.321 19.37 5.222 3.51 12.385 4.35 20.179 4.35v-4c-7.71 0-13.798-.88-17.95-3.67-3.958-2.65-6.55-7.34-6.55-16.05h-4Zm0-30.78v30.78h4v-30.78h-4Zm13.36-15.81c-2.202-1.04-5.722-1.52-8.697.94-2.886 2.39-4.663 7.08-4.663 14.87h4c0-7.41 1.723-10.55 3.212-11.78 1.4-1.16 3.13-1.03 4.428-.41l1.72-3.62Zm25.14-.19h-26v4h26v-4Zm39.487 51.27c-1.76-15.47-5.054-28.25-11.215-37.2-6.27-9.1-15.403-14.07-28.272-14.07v4c11.631 0 19.498 4.39 24.978 12.34 5.589 8.12 8.795 20.09 10.535 35.39l3.974-.46Zm17.037 52.93c-12.294-14.46-14.696-32.34-17.037-52.93l-3.974.46c2.322 20.41 4.766 39.53 17.963 55.06l3.048-2.59Zm64.278 21.31c-3.744.37-15.624.08-28.76-2.9-13.169-2.98-27.144-8.55-35.518-18.41l-3.048 2.59c9.226 10.86 24.251 16.69 37.683 19.73 13.463 3.04 25.783 3.39 30.039 2.97l-.396-3.98Zm46.829-17.34c-9.131 8.57-23.642 15.04-46.829 17.34l.396 3.98c23.722-2.36 39.186-9.03 49.171-18.41l-2.738-2.91Zm-13.155-124.07c-2.614-3.58-5.437-6.8-8.306-9.71l-2.845 2.82c2.751 2.78 5.441 5.85 7.921 9.25l3.23-2.36Zm13.99 33.04c-2.338-12.94-7.244-23.81-13.99-33.04l-3.23 2.36c6.394 8.75 11.055 19.05 13.284 31.4l3.936-.72Zm24.899-1.64h-26.867v4h26.867v-4Zm-2-102.53V1600h4v-104.53h-4Zm-.208-2.47c.084.38.208 1.16.208 2.47h4c0-1.56-.148-2.64-.302-3.33l-3.906.86Zm1.282 1.46.062.02 1.218-3.81-.061-.02-1.219 3.81Zm-1.789-.33c.722.07 1.351.19 1.799.33l1.198-3.82c-.79-.25-1.714-.41-2.636-.49l-.361 3.98Zm-5.942-.54 5.941.54.362-3.98-5.941-.54-.362 3.98Zm-9.387 39.58c9.864-14.52 11.989-29.14 11.567-41.64l-3.998.14c.402 11.9-1.615 25.61-10.878 39.25l3.309 2.25ZM948.794 1560c12.794-7.85 22.622-16.66 29.527-26.83l-3.309-2.25c-6.511 9.59-15.869 18.03-28.311 25.68l2.093 3.4ZM996 1662.61c7.72 0 13.44-2.65 17.52-6.58l-2.77-2.88c-3.32 3.19-8.03 5.46-14.75 5.46v4Zm2 40.39v-42.39h-4V1703h4Zm155-2H996v4h157v-4Zm-2-43.34V1703h4v-45.34h-4Zm-26.5-28.38c0 9.54 2.88 17.18 8 22.44 5.13 5.26 12.31 7.94 20.5 7.94v-4c-7.31 0-13.38-2.37-17.63-6.73-4.25-4.36-6.87-10.92-6.87-19.65h-4Zm0-133.81v133.81h4v-133.81h-4Zm.09-1.18c-.03.34-.05.68-.08 1.01l3.98.34.09-1.05-3.99-.3Zm.08-1.07c-.03.36-.06.72-.08 1.07l3.99.3c.02-.36.05-.72.08-1.08l-3.99-.29Zm27.91-29.94c-12.67 2.76-19.62 7.52-23.41 13.22-3.74 5.62-4.15 11.83-4.5 16.72l3.99.29c.35-5 .76-10.17 3.84-14.79 3.02-4.55 8.89-8.91 20.92-11.53l-.84-3.91ZM1151 1414v51.24h4V1414h-4Zm-155 2h157v-4H996v4Zm2 52.24V1414h-4v54.24h4Zm24.36 27.23c0-11.77-4.29-19-9.91-23.33-5.51-4.25-12.05-5.51-16.269-5.89l-.362 3.98c3.898.35 9.551 1.5 14.191 5.08 4.53 3.49 8.35 9.5 8.35 20.16h4Zm0 138.23v-138.23h-4v138.23h4Zm-8.84 22.33c6.84-6.56 8.84-16.38 8.84-22.33h-4c0 5.35-1.85 13.92-7.61 19.45l2.77 2.88Zm473.69-157.53c0-10.88-3.7-17.87-8.76-22.26-4.97-4.32-11.03-5.92-15.43-6.52l-.55 3.96c4.03.55 9.21 1.98 13.36 5.58 4.07 3.54 7.38 9.37 7.38 19.24h4Zm0 134.68V1498.5h-4v134.68h4Zm-26.21 23.79c10.17 0 16.82-3.4 20.9-8.27 4.02-4.8 5.31-10.75 5.31-15.52h-4c0 4.14-1.13 9.08-4.37 12.95-3.19 3.81-8.64 6.84-17.84 6.84v4Zm2 45.03v-47.03h-4V1702h4Zm155-2h-157v4h157v-4Zm-2-46.03V1702h4v-48.03h-4Zm-27.5-26.47c0 9.55 3.2 16.76 8.65 21.55 5.41 4.75 12.81 6.92 20.85 6.92v-4c-7.37 0-13.72-1.98-18.21-5.93-4.44-3.9-7.29-9.93-7.29-18.54h-4Zm0-43.5v43.5h4V1584h-4Zm2.71-2h-.71v4h.71v-4Zm11.58-9.72c-5.28 0-8.7 1.83-10.8 4.38-2.02 2.46-2.59 5.35-2.77 7.15l3.98.38c.14-1.44.59-3.41 1.89-4.99 1.22-1.5 3.43-2.92 7.7-2.92v-4Zm57.72 0h-57.72v4h57.72v-4Zm10.59 6.97c-1.97-5.55-7.15-6.97-10.59-6.97v4c2.62 0 5.66 1.05 6.82 4.31l3.77-1.34Zm.11 53.93v-53.26h-4v53.26h4Zm-26.21 23.79c10.17 0 16.82-3.4 20.9-8.27 4.02-4.8 5.31-10.75 5.31-15.52h-4c0 4.14-1.13 9.08-4.37 12.95-3.19 3.81-8.64 6.84-17.84 6.84v4Zm2 45.03v-47.03h-4V1702h4Zm155-2h-157v4h157v-4Zm-2-46.03V1702h4v-48.03h-4Zm-27.5-26.47c0 9.55 3.2 16.76 8.65 21.55 5.41 4.75 12.81 6.92 20.85 6.92v-4c-7.37 0-13.72-1.98-18.21-5.93-4.44-3.9-7.29-9.93-7.29-18.54h-4Zm0-122.5v122.5h4V1505h-4Zm.06-.74-.05.57 3.98.34.05-.57-3.98-.34Zm0-.11v.11l3.98.34.01-.12-3.99-.33Zm29.44-34.65c-6.48 0-11.61 1.48-15.63 3.97-4.02 2.49-6.82 5.92-8.78 9.62-3.89 7.32-4.59 15.93-5.02 21.06l3.98.33c.44-5.22 1.12-13.02 4.57-19.52 1.7-3.2 4.05-6.04 7.36-8.09 3.3-2.04 7.66-3.37 13.52-3.37v-4Zm-2-54.5v56.5h4V1415h-4Zm-155 2h157v-4h-157v4Zm2 54.5V1415h-4v56.5h4Zm24.21 27c0-11.68-4.27-18.86-9.86-23.16-5.48-4.21-11.97-5.45-16.17-5.83l-.36 3.98c3.87.35 9.49 1.48 14.09 5.02 4.5 3.46 8.3 9.42 8.3 19.99h4Zm0 24.98v-24.98h-4v24.98h4Zm-13.14 10.55c3.72 0 6.77-1 9.04-2.87 2.26-1.88 3.57-4.47 4.07-7.33l-3.94-.69c-.36 2.09-1.27 3.77-2.68 4.93-1.41 1.17-3.5 1.96-6.49 1.96v4Zm-52.5 0h52.5v-4h-52.5v4Zm-.45-.02.29.02.32-3.99-.29-.02-.32 3.99Zm-15.91-13.01c0 2.81.69 5.11 1.91 6.95 1.21 1.83 2.85 3.08 4.57 3.93 3.36 1.67 7.26 1.95 9.43 2.13l.32-3.99c-2.27-.18-5.41-.45-7.97-1.72-1.24-.62-2.28-1.44-3.01-2.55-.73-1.1-1.25-2.61-1.25-4.75h-4Zm1.29 2h.71v-4h-.71v4Zm-2-18v16h4v-16h-4Zm.73-7.24c-.33 2.4-.51 4.6-.67 6.39l3.99.33c.15-1.79.33-3.89.65-6.17l-3.97-.55Zm.08-.54c-.03.18-.05.36-.08.54l3.97.55c.02-.17.04-.33.07-.51l-3.96-.58Zm.08-.53c-.03.18-.05.36-.08.54l3.96.57c.02-.16.05-.33.07-.49l-3.95-.62Zm28.61-27.19c-10.46 0-17.28 3.85-21.66 9.36-4.3 5.4-6.08 12.18-6.95 17.83l3.95.62c.84-5.41 2.48-11.38 6.13-15.96 3.56-4.48 9.2-7.85 18.53-7.85v-4Zm-2-54.5v56.5h4V1415h-4Zm-155 2h157v-4h-157v4Zm2 54.5V1415h-4v56.5h4Zm.02-1.78c-.65-.09-1.26-.16-1.84-.21l-.36 3.98c.52.05 1.07.11 1.65.19l.55-3.96Zm-63.92-53.47h39.64v-4h-39.64v4Zm.92.79c.29-.64.59-1.29.9-1.95l-3.64-1.67c-.3.66-.6 1.31-.89 1.95l3.63 1.67Zm-.01.03.01-.03-3.63-1.67-.02.02 3.64 1.68Zm-23.79 18.84c2.89 1.31 5.53 1.86 8 1.48 2.5-.38 4.55-1.67 6.32-3.52 1.75-1.81 3.28-4.23 4.77-7.03 1.49-2.8 3.02-6.12 4.7-9.78l-3.64-1.67c-1.69 3.7-3.16 6.89-4.59 9.57-1.43 2.69-2.76 4.73-4.12 6.15-1.33 1.38-2.63 2.11-4.05 2.32-1.44.23-3.28-.05-5.75-1.16l-1.64 3.64Zm-84.71-17.61c10.41-.77 27.81-1.18 44.48 1.01 8.34 1.09 16.43 2.82 23.36 5.45 6.94 2.63 12.56 6.11 16.13 10.58l3.12-2.5c-4.19-5.25-10.54-9.05-17.83-11.82-7.32-2.77-15.74-4.56-24.26-5.68-17.03-2.23-34.72-1.81-45.3-1.03l.3 3.99ZM1165 1569.46c0-105.26 81.01-151.15 126.36-151.15v-4c-47.37 0-130.36 47.49-130.36 155.15h4Zm135.5 139.04c-16.97 0-50.94-8.49-80.64-30.21-29.6-21.65-54.86-56.35-54.86-108.83h-4c0 53.98 26.07 89.8 56.5 112.06 30.34 22.18 65.12 30.98 83 30.98v-4Zm136.24-98c0 22.98-6.34 40.49-16.3 53.88-9.98 13.4-23.68 22.79-38.56 29.35-29.81 13.14-64.02 14.77-81.38 14.77v4c17.49 0 52.4-1.62 83-15.11 15.32-6.75 29.65-16.52 40.15-30.63 10.51-14.13 17.09-32.49 17.09-56.26h-4Zm0-39v39h4v-39h-4Zm-74.24 2h76.24v-4h-76.24v4Zm-39.95 72.49c6.4.47 17.16.51 26.2-9.36 8.91-9.74 15.75-28.73 15.75-65.13h-4c0 36.1-6.83 53.82-14.71 62.43-7.75 8.47-16.89 8.51-22.96 8.07l-.28 3.99Zm-32.24-30.97c1.49 6.98 3.04 14.37 7.54 20.15 4.61 5.94 12.07 9.91 24.7 10.82l.28-3.99c-11.86-.85-18.1-4.5-21.82-9.28-3.84-4.93-5.25-11.36-6.79-18.54l-3.91.84Zm-.9-4.07c.31 1.35.6 2.7.9 4.07l3.91-.84c-.3-1.36-.59-2.75-.91-4.13l-3.9.9Zm-.42-74.48c-.5 25.37-1.2 60.08.38 74.25l3.98-.44c-1.55-13.84-.87-48.18-.36-73.73l-4-.08Zm.37-23.8c0 5.4-.17 13.9-.37 23.8l4 .08c.2-9.88.37-18.43.37-23.88h-4Zm38.14-40.17c-19.6 0-38.14 16.39-38.14 40.17h4c0-21.56 16.74-36.17 34.14-36.17v-4Zm34.9 39.93c-.99-8.27-4.38-18.15-10.12-26.01-5.75-7.87-14.04-13.92-24.78-13.92v4c9.06 0 16.28 5.06 21.55 12.28 5.29 7.24 8.46 16.45 9.38 24.13l3.97-.48Zm2.25 25.79-2.24-25.73-3.99.35 2.24 25.73 3.99-.35Zm74.09-1.82h-76.09v4h76.09v-4Zm-2-122.15v124.15h4v-124.15h-4Zm-107.07 88.69c2.51 3.43 4.35 8.47 4.89 12.54l3.97-.54c-.63-4.63-2.68-10.32-5.63-14.36l-3.23 2.36Zm-2.38-2.46c.31.19 1.2.84 2.38 2.46l3.23-2.36c-1.42-1.95-2.68-3.01-3.54-3.52l-2.07 3.42Zm.21.02h-.01c-.06-.01-.12-.02-.19-.04-.06-.02-.1-.03-.1-.03s.01 0 .02.01c.02.01.04.02.07.04l2.07-3.42c-.28-.17-.6-.34-.97-.45-.4-.11-.73-.11-.89-.11v4Zm-10.14 12.17c0-8.26 5.95-12.17 10.14-12.17v-4c-6.4 0-14.14 5.7-14.14 16.17h4Zm-.37 24.05c.19-9.64.37-18.36.37-24.05h-4c0 5.64-.17 14.31-.37 23.97l4 .08Zm0 .31v-.3l-4-.08v.3l4 .08Zm.09 69.41c-1.16-12.7-.61-43.65-.09-69.41l-4-.08c-.51 25.62-1.08 56.87.11 69.86l3.98-.37Zm.58 2.6-.62-2.85-3.9.87c.22.99.42 1.94.61 2.82l3.91-.84Zm.02.1-.02-.1-3.91.84.02.1 3.91-.84Zm1.87 7.64c-.57-1.73-1.05-3.83-1.87-7.64l-3.91.84c.81 3.76 1.33 6.08 1.98 8.05l3.8-1.25Zm.49 1.28c-.09-.19-.27-.59-.49-1.28l-3.8 1.25c.27.82.5 1.38.67 1.75l3.62-1.72Zm4.53.01c-3.53-.26-5.14-.82-5.57-1l-1.53 3.7c.92.38 2.96 1.01 6.81 1.29l.29-3.99Zm3.41-.22c-.19.2-.2.2-.19.2.04-.03.05-.02-.07.01-.34.08-1.16.15-3.15.01l-.29 3.99c2 .14 3.37.13 4.39-.11.56-.14 1.04-.35 1.47-.66.38-.28.67-.61.81-.77l-2.97-2.67Zm.01-.02-.01.01 2.97 2.69.01-.01-2.97-2.69Zm.1-.1c-.04.04-.07.07-.1.11l2.97 2.67c.03-.03.05-.06.08-.09l-2.95-2.69Zm8.41-46.23c0 34.32-6.73 44.39-8.41 46.23l2.95 2.7c2.71-2.97 9.46-14.31 9.46-48.93h-4Zm0-24v24h4v-24h-4Zm2.85-2h-.85v4h.85v-4Zm-4.8-30.12 2.81 32.29 3.99-.34-2.81-32.29-3.99.34Zm465.17-19.63.92 1.77v.01h-.02c-.01.01-.02.01-.02.01-.01.01-.03.02-.04.02-.02.01-.05.02-.07.03-.04.02-.07.03-.1.04l-1.19-3.82c-.08.02-.15.05-.22.08-.03.01-.06.02-.09.04-.02 0-.03.01-.05.02 0 0-.01.01-.02.01h-.01v.01h-.01l.92 1.78Zm-.64-1.9c.02-.01.05-.01.07-.02.02 0 .03-.01.04-.01.01 0 .02-.01.02-.01h.02s.01 0 .49 1.94l.49 1.94s0-.01.01-.01h.03c.02-.01.03-.01.05-.02.03-.01.07-.02.11-.03l-1.33-3.78Zm-.1.04a.69.69 0 0 0 .1-.04l1.33 3.78c.06-.03.13-.05.2-.09l-1.63-3.65ZM825.839 1506H795v4h30.839v-4Zm-.839-6.5c0 3.17-.479 5.88-1.08 7.94l3.839 1.12c.703-2.4 1.241-5.49 1.241-9.06h-4Zm-.891-7.99c.462 1.75.891 4.35.891 7.99h4c0-3.96-.466-6.91-1.025-9.01l-3.866 1.02ZM795 1493h31.042v-4H795v4Zm2 15v-17h-4v17h4Zm29.212-21.73a.403.403 0 0 0-.066-.09c-.011-.02-.021-.03-.031-.04-.005-.01-.01-.01-.015-.02-.003 0-.005 0-.008-.01h-.007l-1.506 1.31-1.507 1.32h-.001l-.001-.01h-.005c-.002 0-.004-.01-.007-.01-.004 0-.008-.01-.012-.01l-.024-.03c-.014-.02-.026-.04-.035-.05l3.225-2.36Zm-3.179 2.42.01.01 3.113-2.51-.01-.01-3.113 2.51Zm-.034-.04h.005l3.171-2.43-.005-.01-3.171 2.44Zm-.033-.05.006.01 3.225-2.36-.006-.01-3.225 2.36ZM773 1522.52v-38.85h-4v38.85h4Zm7 7.48c-2.063 0-3.785-1-5.043-2.5-1.286-1.54-1.957-3.46-1.957-4.98h-4c0 2.54 1.059 5.36 2.889 7.55 1.857 2.22 4.635 3.93 8.111 3.93v-4Zm54.773 0H780v4h54.773v-4ZM849 1499.5c0 8.7-2.059 16.51-4.986 22.07-1.464 2.78-3.111 4.94-4.759 6.37-1.658 1.45-3.19 2.06-4.482 2.06v4c2.571 0 4.999-1.2 7.109-3.04 2.118-1.84 4.046-4.44 5.672-7.53 3.255-6.19 5.446-14.64 5.446-23.93h-4Zm-14.227-30.5c.862 0 2.181.4 3.756 1.54 1.548 1.11 3.231 2.86 4.79 5.34 3.114 4.94 5.681 12.68 5.681 23.62h4c0-11.56-2.713-20.07-6.297-25.75-1.789-2.84-3.808-5-5.834-6.46-1.999-1.44-4.125-2.29-6.096-2.29v4Zm-50.957 0h50.957v-4h-50.957v4ZM773 1483.67c0-7.98 2.221-11.42 4.3-12.99 2.179-1.64 4.749-1.68 6.516-1.68v-4c-1.731 0-5.569-.04-8.923 2.49-3.455 2.6-5.893 7.5-5.893 16.18h4Zm567.22-865.505-.01.001.97 3.881.01-.001-.97-3.881Zm-274.28-.887.18.105 1.99-3.473-.19-.105-1.98 3.473Zm-36.1 143.197-3.16-16.17-3.92.766 3.15 16.169 3.93-.765Zm352.08 628.945-6.48 14.06 3.63 1.67 6.48-14.06-3.63-1.67Zm206.65 114.73-.06.68 3.98.34.06-.69-3.98-.33Zm-271.58 32.54v-.01h-4v.01h4Z" mask="url(#u)"/></g><defs><linearGradient id="b" x1="481.93" x2="1830.55" y1="0" y2="2521.51" gradientUnits="userSpaceOnUse"><stop stop-color="#997804"/><stop offset=".334" stop-color="#E9B93A"/><stop offset=".5" stop-color="#EBCC7C"/><stop offset=".757" stop-color="#D5AD4A"/><stop offset="1" stop-color="#A17929"/></linearGradient><linearGradient id="d" x1="829" x2="1539.57" y1="486" y2="1818.17" gradientUnits="userSpaceOnUse"><stop stop-color="#997804"/><stop offset=".334" stop-color="#E9B93A"/><stop offset=".5" stop-color="#EBCC7C"/><stop offset=".757" stop-color="#D5AD4A"/><stop offset="1" stop-color="#A17929"/></linearGradient><linearGradient id="e" x1="829" x2="1539.57" y1="486" y2="1818.17" gradientUnits="userSpaceOnUse"><stop stop-color="#997804"/><stop offset=".334" stop-color="#E9B93A"/><stop offset=".5" stop-color="#EBCC7C"/><stop offset=".757" stop-color="#D5AD4A"/><stop offset="1" stop-color="#A17929"/></linearGradient><linearGradient id="f" x1="829" x2="1539.57" y1="486" y2="1818.17" gradientUnits="userSpaceOnUse"><stop stop-color="#997804"/><stop offset=".334" stop-color="#E9B93A"/><stop offset=".5" stop-color="#EBCC7C"/><stop offset=".757" stop-color="#D5AD4A"/><stop offset="1" stop-color="#A17929"/></linearGradient><linearGradient id="g" x1="829" x2="1539.57" y1="486" y2="1818.17" gradientUnits="userSpaceOnUse"><stop stop-color="#997804"/><stop offset=".334" stop-color="#E9B93A"/><stop offset=".5" stop-color="#EBCC7C"/><stop offset=".757" stop-color="#D5AD4A"/><stop offset="1" stop-color="#A17929"/></linearGradient><linearGradient id="h" x1="829" x2="1539.57" y1="486" y2="1818.17" gradientUnits="userSpaceOnUse"><stop stop-color="#997804"/><stop offset=".334" stop-color="#E9B93A"/><stop offset=".5" stop-color="#EBCC7C"/><stop offset=".757" stop-color="#D5AD4A"/><stop offset="1" stop-color="#A17929"/></linearGradient><linearGradient id="i" x1="829" x2="1539.57" y1="486" y2="1818.17" gradientUnits="userSpaceOnUse"><stop stop-color="#997804"/><stop offset=".334" stop-color="#E9B93A"/><stop offset=".5" stop-color="#EBCC7C"/><stop offset=".757" stop-color="#D5AD4A"/><stop offset="1" stop-color="#A17929"/></linearGradient><linearGradient id="j" x1="829" x2="1539.57" y1="486" y2="1818.17" gradientUnits="userSpaceOnUse"><stop stop-color="#997804"/><stop offset=".334" stop-color="#E9B93A"/><stop offset=".5" stop-color="#EBCC7C"/><stop offset=".757" stop-color="#D5AD4A"/><stop offset="1" stop-color="#A17929"/></linearGradient><linearGradient id="k" x1="829" x2="1539.57" y1="486" y2="1818.17" gradientUnits="userSpaceOnUse"><stop stop-color="#997804"/><stop offset=".334" stop-color="#E9B93A"/><stop offset=".5" stop-color="#EBCC7C"/><stop offset=".757" stop-color="#D5AD4A"/><stop offset="1" stop-color="#A17929"/></linearGradient><linearGradient id="l" x1="829" x2="1539.57" y1="486" y2="1818.17" gradientUnits="userSpaceOnUse"><stop stop-color="#997804"/><stop offset=".334" stop-color="#E9B93A"/><stop offset=".5" stop-color="#EBCC7C"/><stop offset=".757" stop-color="#D5AD4A"/><stop offset="1" stop-color="#A17929"/></linearGradient><linearGradient id="m" x1="829" x2="1539.57" y1="486" y2="1818.17" gradientUnits="userSpaceOnUse"><stop stop-color="#997804"/><stop offset=".334" stop-color="#E9B93A"/><stop offset=".5" stop-color="#EBCC7C"/><stop offset=".757" stop-color="#D5AD4A"/><stop offset="1" stop-color="#A17929"/></linearGradient><linearGradient id="n" x1="829" x2="1539.57" y1="486" y2="1818.17" gradientUnits="userSpaceOnUse"><stop stop-color="#997804"/><stop offset=".334" stop-color="#E9B93A"/><stop offset=".5" stop-color="#EBCC7C"/><stop offset=".757" stop-color="#D5AD4A"/><stop offset="1" stop-color="#A17929"/></linearGradient><linearGradient id="o" x1="829" x2="1539.57" y1="486" y2="1818.17" gradientUnits="userSpaceOnUse"><stop stop-color="#997804"/><stop offset=".334" stop-color="#E9B93A"/><stop offset=".5" stop-color="#EBCC7C"/><stop offset=".757" stop-color="#D5AD4A"/><stop offset="1" stop-color="#A17929"/></linearGradient><linearGradient id="p" x1="829" x2="1539.57" y1="486" y2="1818.17" gradientUnits="userSpaceOnUse"><stop stop-color="#997804"/><stop offset=".334" stop-color="#E9B93A"/><stop offset=".5" stop-color="#EBCC7C"/><stop offset=".757" stop-color="#D5AD4A"/><stop offset="1" stop-color="#A17929"/></linearGradient><linearGradient id="q" x1="829" x2="1539.57" y1="486" y2="1818.17" gradientUnits="userSpaceOnUse"><stop stop-color="#997804"/><stop offset=".334" stop-color="#E9B93A"/><stop offset=".5" stop-color="#EBCC7C"/><stop offset=".757" stop-color="#D5AD4A"/><stop offset="1" stop-color="#A17929"/></linearGradient><linearGradient id="r" x1="829" x2="1539.57" y1="486" y2="1818.17" gradientUnits="userSpaceOnUse"><stop stop-color="#997804"/><stop offset=".334" stop-color="#E9B93A"/><stop offset=".5" stop-color="#EBCC7C"/><stop offset=".757" stop-color="#D5AD4A"/><stop offset="1" stop-color="#A17929"/></linearGradient><linearGradient id="s" x1="829" x2="1539.57" y1="486" y2="1818.17" gradientUnits="userSpaceOnUse"><stop stop-color="#997804"/><stop offset=".334" stop-color="#E9B93A"/><stop offset=".5" stop-color="#EBCC7C"/><stop offset=".757" stop-color="#D5AD4A"/><stop offset="1" stop-color="#A17929"/></linearGradient><linearGradient id="t" x1="829" x2="1539.57" y1="486" y2="1818.17" gradientUnits="userSpaceOnUse"><stop stop-color="#997804"/><stop offset=".334" stop-color="#E9B93A"/><stop offset=".5" stop-color="#EBCC7C"/><stop offset=".757" stop-color="#D5AD4A"/><stop offset="1" stop-color="#A17929"/></linearGradient><filter id="a" width="2438" height="2446" x="0" y="0" color-interpolation-filters="sRGB" filterUnits="userSpaceOnUse"><feFlood flood-opacity="0" result="BackgroundImageFix"/><feColorMatrix in="SourceAlpha" result="hardAlpha" values="0 0 0 0 0 0 0 0 0 0 0 0 0 0 0 0 0 0 127 0"/><feOffset dy="8"/><feComposite in2="hardAlpha" operator="out"/><feColorMatrix values="0 0 0 0 0 0 0 0 0 0 0 0 0 0 0 0 0 0 0.3 0"/><feBlend in2="BackgroundImageFix" result="effect1_dropShadow_9749_43684"/><feBlend in="SourceGraphic" in2="effect1_dropShadow_9749_43684" result="shape"/></filter><filter id="c" width="1294" height="1298.5" x="572" y="484" color-interpolation-filters="sRGB" filterUnits="userSpaceOnUse"><feFlood flood-opacity="0" result="BackgroundImageFix"/><feColorMatrix in="SourceAlpha" result="hardAlpha" values="0 0 0 0 0 0 0 0 0 0 0 0 0 0 0 0 0 0 127 0"/><feOffset dy="8"/><feComposite in2="hardAlpha" operator="out"/><feColorMatrix values="0 0 0 0 0 0 0 0 0 0 0 0 0 0 0 0 0 0 1 0"/><feBlend in2="BackgroundImageFix" result="effect1_dropShadow_9749_43684"/><feBlend in="SourceGraphic" in2="effect1_dropShadow_9749_43684" result="shape"/></filter></defs></svg>