<svg width="100%" height="100%" fill="none" xmlns="http://www.w3.org/2000/svg">
<g class="group">
<path d="M-87.2545 -1293.49L-1.42165 -72.5033L48.3858 -1295.49L6.16967 -72.2171L183.492 -1283.28L13.6895 -71.1387L316.584 -1257.02L21.0555 -69.2799L446.204 -1216.99L28.1871 -66.6609L570.931 -1163.62L35.0058 -63.3107L689.399 -1097.5L41.4373 -59.2657L800.31 -1019.35L47.4108 -54.5704L902.449 -930.041L52.8611 -49.2762L994.696 -830.536L57.7284 -43.4411L1076.04 -721.93L61.9593 -37.1291L1145.59 -605.415L65.5075 -30.4092L1202.59 -482.264L68.3343 -23.3552L1246.41 -353.83L70.4084 -16.0443L1276.57 -221.517L71.7073 -8.55651L1292.73 -86.7766L72.2167 -0.973997L1294.73 48.9156L71.931 6.62021L1282.54 184.073L70.8534 14.1428L1256.3 317.215L68.9956 21.5116L1216.29 446.882L66.378 28.6457L1162.94 571.654L63.0294 35.4669L1096.86 690.164L58.9863 41.9006L1018.75 801.113L54.2932 47.8762L929.473 903.286L49.0014 53.3284L830.011 995.564L43.1687 58.1972L721.451 1076.93L36.8593 62.4294L604.983 1146.51L30.1422 65.9787L481.883 1203.52L23.091 68.8061L353.5 1247.35L15.783 70.8806L221.24 1277.51L8.29814 72.1796L86.5514 1293.68L0.718548 72.6888L-49.0889 1295.67L-6.87276 72.4026L-184.195 1283.47L-14.3926 71.3242L-317.287 1257.21L-21.7586 69.4654L-446.907 1217.17L-28.8902 66.8465L-571.634 1163.8L-35.7089 63.4962L-690.102 1097.69L-42.1404 59.4513L-801.013 1019.54L-48.1139 54.7559L-903.152 930.226L-53.5642 49.4617L-995.399 830.721L-58.4315 43.6267L-1076.74 722.116L-62.6624 37.3147L-1146.3 605.6L-66.2106 30.5947L-1203.29 482.45L-69.0374 23.5407L-1247.11 354.015L-71.1115 16.2298L-1277.27 221.703L-72.4104 8.74205L-1293.44 86.9622L-72.9198 1.15953L-1295.44 -48.73L-72.6341 -6.43468L-1283.25 -183.887L-71.5565 -13.9573L-1257 -317.029L-69.6987 -21.3261L-1216.99 -446.696L-67.0811 -28.4602L-1163.65 -571.468L-63.7325 -35.2814L-1097.56 -689.978L-59.6894 -41.7151L-1019.45 -800.927L-54.9963 -47.6907L-930.176 -903.101L-49.7044 -53.1428L-830.714 -995.378L-43.8718 -58.0117L-722.154 -1076.75L-37.5624 -62.2439L-605.687 -1146.32L-30.8453 -65.7932L-482.586 -1203.33L-23.7941 -68.6206L-354.203 -1247.16L-16.4861 -70.695L-221.943 -1277.32L-9.00124 -71.9941L-87.2545 -1293.49Z" fill="white" fill-opacity="0.1"/>
<path d="M-146.23 -1288.17L-4.73183 -72.3789L-10.8226 -1296.36L2.86464 -72.4396L124.7 -1290.34L10.4259 -71.7058L258.852 -1270.18L17.8691 -70.1853L390.165 -1236.11L25.1128 -67.8947L517.199 -1188.49L32.0774 -64.8593L638.563 -1127.85L38.6869 -61.1123L752.927 -1054.85L44.8686 -56.6946L859.037 -970.296L50.5549 -51.6548L955.732 -875.107L55.6836 -46.0481L1041.95 -770.33L60.1983 -39.9359L1116.75 -657.112L64.0497 -33.385L1179.31 -536.693L67.1956 -26.4674L1228.95 -410.393L69.6015 -19.2588L1265.12 -279.595L71.2409 -11.8382L1287.42 -145.734L72.096 -4.28686L1295.62 -10.2744L72.1574 3.31248L1289.61 125.299L71.4244 10.8765L1269.47 259.5L69.905 18.3224L1235.42 390.859L67.616 25.5686L1187.83 517.937L64.5823 32.5356L1127.23 639.341L60.8373 39.1472L1054.27 753.741L56.4219 45.3308L969.75 859.884L51.3846 51.019L874.606 956.608L45.7803 56.1491L769.875 1042.85L39.6708 60.665L656.706 1117.67L33.1227 64.5173L536.337 1180.24L26.208 67.6637L410.089 1229.89L19.0023 70.0697L279.344 1266.06L11.5846 71.7092L145.535 1288.36L4.03619 72.564L10.127 1296.54L-3.56027 72.6247L-125.396 1290.53L-11.1215 71.8909L-259.548 1270.37L-18.5647 70.3704L-390.861 1236.3L-25.8084 68.0798L-517.895 1188.68L-32.773 65.0444L-639.258 1128.04L-39.3825 61.2974L-753.622 1055.04L-45.5642 56.8797L-859.733 970.481L-51.2505 51.8399L-956.428 875.292L-56.3792 46.2332L-1042.65 770.515L-60.894 40.121L-1117.45 657.297L-64.7454 33.5701L-1180.01 536.878L-67.8913 26.6525L-1229.65 410.578L-70.2971 19.4439L-1265.81 279.78L-71.9366 12.0233L-1288.12 145.919L-72.7917 4.47196L-1296.31 10.4595L-72.8531 -3.12738L-1290.31 -125.113L-72.12 -10.6914L-1270.17 -259.315L-70.6007 -18.1373L-1236.12 -390.674L-68.3116 -25.3835L-1188.53 -517.751L-65.278 -32.3505L-1127.92 -639.156L-61.5329 -38.9621L-1054.96 -753.556L-57.1175 -45.1457L-970.446 -859.699L-52.0802 -50.8339L-875.301 -956.422L-46.476 -55.964L-770.571 -1042.67L-40.3664 -60.4799L-657.401 -1117.48L-33.8184 -64.3322L-537.033 -1180.06L-26.9036 -67.4786L-410.785 -1229.7L-19.6979 -69.8846L-280.04 -1265.87L-12.2803 -71.5241L-146.23 -1288.17Z" fill="white" fill-opacity="0.1"/>
<path d="M-146.23 -1288.17L-4.73183 -72.3789L-10.8226 -1296.36L2.86464 -72.4396L124.7 -1290.34L10.4259 -71.7058L258.852 -1270.18L17.8691 -70.1853L390.165 -1236.11L25.1128 -67.8947L517.199 -1188.49L32.0774 -64.8593L638.563 -1127.85L38.6869 -61.1123L752.927 -1054.85L44.8686 -56.6946L859.037 -970.296L50.5549 -51.6548L955.732 -875.107L55.6836 -46.0481L1041.95 -770.33L60.1983 -39.9359L1116.75 -657.112L64.0497 -33.385L1179.31 -536.693L67.1956 -26.4674L1228.95 -410.393L69.6015 -19.2588L1265.12 -279.595L71.2409 -11.8382L1287.42 -145.734L72.096 -4.28686L1295.62 -10.2744L72.1574 3.31248L1289.61 125.299L71.4244 10.8765L1269.47 259.5L69.905 18.3224L1235.42 390.859L67.616 25.5686L1187.83 517.937L64.5823 32.5356L1127.23 639.341L60.8373 39.1472L1054.27 753.741L56.4219 45.3308L969.75 859.884L51.3846 51.019L874.606 956.608L45.7803 56.1491L769.875 1042.85L39.6708 60.665L656.706 1117.67L33.1227 64.5173L536.337 1180.24L26.208 67.6637L410.089 1229.89L19.0023 70.0697L279.344 1266.06L11.5846 71.7092L145.535 1288.36L4.03619 72.564L10.127 1296.54L-3.56027 72.6247L-125.396 1290.53L-11.1215 71.8909L-259.548 1270.37L-18.5647 70.3704L-390.861 1236.3L-25.8084 68.0798L-517.895 1188.68L-32.773 65.0444L-639.258 1128.04L-39.3825 61.2974L-753.622 1055.04L-45.5642 56.8797L-859.733 970.481L-51.2505 51.8399L-956.428 875.292L-56.3792 46.2332L-1042.65 770.515L-60.894 40.121L-1117.45 657.297L-64.7454 33.5701L-1180.01 536.878L-67.8913 26.6525L-1229.65 410.578L-70.2971 19.4439L-1265.81 279.78L-71.9366 12.0233L-1288.12 145.919L-72.7917 4.47196L-1296.31 10.4595L-72.8531 -3.12738L-1290.31 -125.113L-72.12 -10.6914L-1270.17 -259.315L-70.6007 -18.1373L-1236.12 -390.674L-68.3116 -25.3835L-1188.53 -517.751L-65.278 -32.3505L-1127.92 -639.156L-61.5329 -38.9621L-1054.96 -753.556L-57.1175 -45.1457L-970.446 -859.699L-52.0802 -50.8339L-875.301 -956.422L-46.476 -55.964L-770.571 -1042.67L-40.3664 -60.4799L-657.401 -1117.48L-33.8184 -64.3322L-537.033 -1180.06L-26.9036 -67.4786L-410.785 -1229.7L-19.6979 -69.8846L-280.04 -1265.87L-12.2803 -71.5241L-146.23 -1288.17Z" fill="white" fill-opacity="0.1"/>
</g></svg>
